<svg version="1.1" id="Layer_1" xmlns="http://www.w3.org/2000/svg" x="0" y="0" width="146.532" height="44.931" xml:space="preserve"><style>.st0{fill:#00383d}</style><path class="st0" d="M64.277 37.6h-1.692v5.939h-.773V37.6H60.12v-.696h4.157v.696zm1.044-.696h1.264c.794 0 1.379.156 1.755.468.424.344.637.82.637 1.423 0 .516-.183.956-.549 1.317-.365.361-.917.542-1.655.542h-.68v2.885h-.772v-6.635zm.773.696v2.358h.637c.46 0 .82-.106 1.081-.319.261-.212.392-.507.392-.884 0-.77-.512-1.155-1.535-1.155h-.575zm8.146 5.939l-.814-1.87h-2.967l-.835 1.87h-.857l3.207-6.953 3.123 6.953h-.857zm-3.478-2.567h2.36l-1.17-2.655-1.19 2.655zm6.088-4.068V39.6h3.573v-2.696h.772v6.635h-.772v-3.242h-3.572v3.242h-.773v-6.635h.773zm11.469.548v.915a3.213 3.213 0 0 0-.909-.617 3.004 3.004 0 0 0-1.2-.26c-.802 0-1.469.268-2 .802-.534.534-.8 1.188-.8 1.965 0 .834.29 1.495.872 1.979.581.483 1.227.726 1.937.726a2.91 2.91 0 0 0 1.296-.308 3.1 3.1 0 0 0 .804-.558v.915a3.647 3.647 0 0 1-2.1.647c-1.03 0-1.889-.328-2.574-.985s-1.029-1.465-1.029-2.426c0-.989.346-1.81 1.04-2.467.692-.657 1.561-.985 2.605-.985a3.42 3.42 0 0 1 2.058.657zm4.428 6.087v-.935h-.188c-.494 0-.935-.056-1.322-.17-.385-.112-.694-.255-.923-.427-.23-.172-.42-.378-.57-.617s-.25-.468-.302-.691a2.937 2.937 0 0 1-.079-.682c0-.231.026-.459.079-.68.051-.223.153-.454.302-.692.15-.239.34-.444.57-.617.23-.172.538-.314.923-.428a4.742 4.742 0 0 1 1.322-.169h.188v-.796h.773v.796h.188c.494 0 .935.057 1.321.17.386.113.695.255.924.427.23.173.42.378.57.617.15.238.25.469.302.692.053.221.079.449.079.68 0 .233-.026.46-.079.682-.051.223-.153.453-.302.691s-.34.445-.57.617c-.23.172-.538.315-.924.427a4.67 4.67 0 0 1-1.32.17h-.19v.935h-.772zm0-1.631v-3.78h-.209c-.453 0-.842.056-1.17.169-.327.113-.574.267-.74.462s-.288.397-.361.602c-.073.206-.11.425-.11.656 0 .233.037.451.11.658.073.205.193.406.36.601s.414.35.741.462c.327.113.717.17 1.17.17h.21zm.773-3.78v3.78h.209c.452 0 .842-.057 1.17-.17.327-.112.574-.267.74-.462s.288-.396.361-.602c.073-.206.11-.424.11-.657 0-.231-.037-.45-.11-.656-.073-.205-.193-.406-.36-.602s-.414-.35-.741-.462c-.328-.113-.718-.17-1.17-.17h-.21zm10.627 4.546c-.7.656-1.558.984-2.575.984s-1.875-.328-2.574-.984c-.7-.657-1.05-1.473-1.05-2.448 0-.981.352-1.799 1.055-2.45.703-.654 1.56-.981 2.57-.981 1.008 0 1.865.327 2.569.98.703.652 1.054 1.47 1.054 2.451 0 .975-.35 1.791-1.05 2.448zm-.57-4.387c-.55-.53-1.218-.796-2.005-.796-.787 0-1.455.266-2.005.796a2.593 2.593 0 0 0-.825 1.94c0 .762.275 1.408.825 1.939.55.531 1.218.796 2.005.796.787 0 1.456-.265 2.005-.796.55-.53.826-1.177.826-1.94 0-.761-.276-1.409-.826-1.94zm3.039-1.383h1.264c.794 0 1.378.156 1.754.468.425.344.638.82.638 1.423 0 .516-.183.956-.55 1.317-.364.361-.916.542-1.654.542h-.68v2.885h-.772v-6.635zm.773.696v2.358h.638c.459 0 .819-.106 1.08-.319.261-.212.391-.507.391-.884 0-.77-.511-1.155-1.535-1.155h-.574zm4.449 5.939h-.794l1.16-7.002 2.673 5.6 2.726-5.61 1.086 7.012h-.794l-.658-4.615-2.37 4.893-2.34-4.893-.689 4.615zm12.909 0l-.815-1.87h-2.966l-.835 1.87h-.856l3.206-6.953 3.123 6.953h-.857zm-3.478-2.567h2.36l-1.17-2.655-1.19 2.655zm5.316 2.567v-6.635h.773v5.938h3.53v-5.938h.772v5.938h.794v2.09h-.73v-1.393h-5.139zm11.76 0v-5.063l-4.846 5.362v-6.934h.773v5.083l4.845-5.361v6.913h-.772zm7.415 0v-5.063l-4.846 5.362v-6.934h.773v5.083l4.845-5.361v6.913h-.772zM65.53 19.666l-.814-1.87h-2.967l-.835 1.87h-.857l3.207-6.952 3.122 6.952h-.856zM62.052 17.1h2.36l-1.17-2.656-1.19 2.656zm5.316 2.566v-6.634h3.175v.696h-2.402v5.938h-.773zm7.833-6.634v.696H72.36v1.97h2.757v.696H72.36v2.576h2.841v.696h-3.614v-6.634h3.614zm2.193 0v2.695h3.572v-2.695h.772v6.634h-.772v-3.242h-3.572v3.242h-.773v-6.634h.773zm9.546.696h-1.692v5.938h-.773v-5.938h-1.692v-.696h4.157v.696zm6.005-.149v.915a3.21 3.21 0 0 0-.908-.617 2.995 2.995 0 0 0-1.2-.258c-.802 0-1.469.266-2 .8-.534.534-.8 1.19-.8 1.965 0 .835.29 1.495.872 1.979.581.484 1.227.727 1.937.727a2.9 2.9 0 0 0 1.296-.31c.292-.138.56-.324.804-.556v.915a3.65 3.65 0 0 1-2.1.646c-1.03 0-1.889-.328-2.574-.984-.686-.657-1.029-1.465-1.029-2.427 0-.988.346-1.81 1.04-2.467.692-.656 1.56-.984 2.605-.984.765 0 1.452.218 2.057.656zm4.825.149h-1.692v5.938h-.773v-5.938h-1.692v-.696h4.157v.696zm1.045-.696h1.253c.696 0 1.228.14 1.597.417.418.306.627.763.627 1.373 0 .57-.23 1.005-.69 1.303.446.106.78.32.999.642.219.322.328.665.328 1.03 0 .297-.067.573-.203.825s-.305.454-.507.607c-.39.291-.947.437-1.671.437h-1.733v-6.634zm.772.696v2.218h.585a1.816 1.816 0 0 0 .652-.094 1.22 1.22 0 0 0 .356-.175.837.837 0 0 0 .256-.328c.07-.145.104-.315.104-.507 0-.206-.042-.383-.125-.532a.99.99 0 0 0-.282-.333 1.2 1.2 0 0 0-.376-.17 2.086 2.086 0 0 0-.334-.069 2.797 2.797 0 0 0-.23-.01h-.606zm0 2.875v2.367h.888c.564 0 .971-.093 1.221-.278.307-.213.46-.518.46-.915 0-.445-.198-.77-.595-.976-.25-.132-.644-.198-1.18-.198h-.794zm10.585 2.198c-.7.656-1.558.984-2.574.984s-1.875-.328-2.574-.984c-.7-.657-1.05-1.472-1.05-2.447 0-.981.351-1.799 1.055-2.452.703-.653 1.56-.98 2.569-.98s1.865.327 2.57.98c.702.653 1.054 1.47 1.054 2.452 0 .975-.35 1.79-1.05 2.447zm-.57-4.387c-.55-.53-1.218-.795-2.004-.795-.787 0-1.455.265-2.006.795a2.594 2.594 0 0 0-.824 1.94c0 .762.274 1.41.824 1.94.55.53 1.219.796 2.006.796.786 0 1.455-.266 2.005-.796s.825-1.178.825-1.94c0-.763-.275-1.409-.825-1.94zm-48.73 17.188v-6.635h.773v5.939h3.53v-5.939h.773v5.939h.793v2.089h-.73v-1.393h-5.14zm11.76 0V26.54l-4.847 5.36v-6.934h.773v5.083l4.846-5.36v6.912h-.772zm5.578 0v-.934h-.19c-.493 0-.934-.057-1.32-.17-.386-.113-.695-.255-.924-.428-.23-.172-.42-.378-.57-.616s-.25-.469-.302-.692a2.937 2.937 0 0 1-.079-.681c0-.232.026-.46.079-.68.051-.224.153-.454.302-.692.15-.24.34-.445.57-.618.23-.171.538-.314.923-.427a4.742 4.742 0 0 1 1.322-.17h.188V24.7h.773v.796h.188c.494 0 .935.056 1.321.169.386.113.695.256.924.427.23.173.42.378.57.618.149.238.25.468.302.691.053.222.078.45.078.68 0 .233-.025.46-.078.682-.051.223-.153.454-.302.692s-.34.444-.57.616c-.23.173-.538.315-.924.428-.386.113-.827.17-1.32.17h-.19v.934h-.772zm0-1.63v-3.78H78c-.453 0-.843.056-1.17.168-.327.113-.574.268-.74.463s-.288.396-.361.601c-.074.207-.11.425-.11.657 0 .232.036.45.11.657.073.205.193.406.36.602s.414.35.741.461c.327.114.717.17 1.17.17h.21zm.772-3.78v3.78h.209c.452 0 .842-.057 1.17-.17.327-.113.574-.267.74-.462s.288-.397.361-.602c.073-.206.11-.425.11-.657 0-.232-.037-.45-.11-.656-.073-.206-.193-.407-.36-.602s-.414-.35-.741-.463a3.63 3.63 0 0 0-1.17-.169h-.21zm4.804-1.225h1.264c.794 0 1.378.157 1.754.468.425.345.638.82.638 1.423 0 .517-.183.956-.55 1.317-.364.362-.916.542-1.654.542h-.68v2.885h-.772v-6.635zm.773.697v2.357h.637c.46 0 .82-.105 1.08-.318.262-.212.392-.507.392-.885 0-.77-.512-1.154-1.535-1.154h-.574zm9.811 5.073c-.7.656-1.557.984-2.574.984s-1.875-.328-2.574-.984c-.7-.656-1.05-1.473-1.05-2.447 0-.982.352-1.8 1.055-2.451.703-.654 1.56-.98 2.57-.98 1.008 0 1.864.326 2.568.98.704.652 1.055 1.47 1.055 2.45 0 .975-.35 1.792-1.05 2.448zm-.569-4.387c-.55-.53-1.219-.796-2.005-.796-.787 0-1.455.266-2.006.796a2.593 2.593 0 0 0-.824 1.94c0 .762.274 1.409.824 1.94.551.53 1.219.795 2.006.795.786 0 1.455-.265 2.005-.796.55-.53.825-1.177.825-1.94 0-.761-.275-1.408-.825-1.939zm3.04-1.383h1.253c.696 0 1.228.14 1.598.418.418.306.627.763.627 1.373 0 .57-.23 1.004-.69 1.303.445.107.778.32.998.642.219.321.328.665.328 1.03 0 .298-.067.573-.203.825s-.305.454-.507.607c-.39.292-.947.437-1.67.437H96.84v-6.635zm.772.697v2.219h.585c.105 0 .206-.005.303-.016.098-.01.214-.036.35-.08s.255-.1.355-.173a.845.845 0 0 0 .256-.328c.07-.147.105-.316.105-.508a1.08 1.08 0 0 0-.125-.532c-.084-.15-.178-.26-.283-.333s-.23-.13-.376-.17-.257-.063-.334-.069a2.598 2.598 0 0 0-.23-.01h-.606zm0 2.875v2.367h.888c.565 0 .972-.093 1.222-.278.306-.212.46-.518.46-.915 0-.445-.198-.77-.596-.975-.25-.133-.643-.2-1.18-.2h-.794zm10.585 2.198c-.7.656-1.557.984-2.574.984s-1.875-.328-2.574-.984c-.7-.656-1.05-1.473-1.05-2.447 0-.982.352-1.8 1.055-2.451.703-.654 1.56-.98 2.57-.98 1.008 0 1.864.326 2.569.98.703.652 1.054 1.47 1.054 2.45 0 .975-.35 1.792-1.05 2.448zm-.569-4.387c-.55-.53-1.219-.796-2.005-.796-.787 0-1.455.266-2.006.796a2.593 2.593 0 0 0-.824 1.94c0 .762.275 1.409.824 1.94.551.53 1.22.795 2.006.795.786 0 1.455-.265 2.005-.796.55-.53.825-1.177.825-1.94 0-.761-.275-1.408-.825-1.939zm7.885 5.252V26.54l-4.846 5.361v-6.934h.773v5.083l4.845-5.36v6.912h-.772zm-3.655-8.136l.731-.229c.041.126.105.23.192.313s.185.14.293.17c.108.03.19.05.245.059s.109.016.158.016c.048 0 .1-.006.156-.016s.138-.03.245-.06c.108-.029.206-.086.293-.169s.151-.187.193-.313l.73.23a1.179 1.179 0 0 1-.12.228c-.051.08-.137.183-.255.308a1.26 1.26 0 0 1-.501.308c-.216.08-.463.12-.741.12-.28 0-.527-.04-.742-.12a1.277 1.277 0 0 1-.501-.308 2.411 2.411 0 0 1-.256-.308 1.18 1.18 0 0 1-.12-.229z"/><path fill="#008c7b" d="M15.436 32.85l-8.24 10.636-.014-.02v.02H43.18v-.025L34.998 32.85z"/><path fill="#fb5244" d="M34.963 12.553l-7.682 10.285L35 32.848l15.395-.082z"/><path fill="#00bfb0" d="M15.436 32.85l17.69-22.839L25.455 0 0 32.765l7.182 10.7.014.021z"/><path class="st0" d="M50.394 32.766L35 32.849l8.181 10.612.02.025z"/></svg>