<svg version="1.0" xmlns="http://www.w3.org/2000/svg" width="666.667" height="666.667" viewBox="0 0 500 500"><path d="M247.9 43.2c-3.4 4.6-7.6 9.9-9.1 11.8-1.6 1.9-3.2 3.9-3.6 4.5-.4.5-14.7 18.9-31.7 40.8-17.1 22-33.1 42.7-35.7 46-5 6.7-31.1 40.2-33.1 42.7-.7.8-2.6 3.3-4.2 5.5-1.7 2.2-3.8 4.9-4.7 6-1.3 1.6-59.1 75.9-107.2 138-5.5 7.1-10.4 13.4-10.9 14-.4.5-1.7 2.1-2.8 3.5-5.8 6.9-8.3 1.9 26.8 54.2 17.4 26 32.8 49 34.2 51l2.5 3.8h367.2l22.4-33.7c12.4-18.6 23-34.4 23.7-35.3.7-.8 5.1-7.3 9.8-14.3 8.2-12.5 8.5-13 8.5-18.7v-5.8l-13.2-17.3c-7.3-9.6-15.5-20.4-18.3-24-5.5-7.2-14-18.4-41.9-55-10.3-13.4-19.2-25.1-19.9-25.9-.7-.8-7.7-10.1-15.7-20.5-7.9-10.5-18.2-24-22.8-30-4.7-6.1-10.5-13.8-13.1-17.2-2.5-3.4-4.9-6.2-5.3-6.3-.6 0-33.5 43.3-41.9 55.2-.8 1-2.2 2.9-3.1 4.1-3.2 4-30.1 40.2-31.1 41.8-.9 1.4 2.8 6.8 15.6 22.9.7.8 13.1 17 27.7 36 14.5 19 26.7 34.7 27 35 .3.3 1.6 2 2.9 3.7l2.2 3.3-2.3.1c-10.5.2-190.9 0-191-.2-.2-.3 9.4-13.4 13.9-18.9 1.6-2 26.2-33.8 29.3-38 1.4-1.8 3-3.8 3.5-4.4.6-.6 2.3-2.9 4-5.1 1.6-2.2 3.4-4.5 4-5.2.5-.6 2-2.4 3.1-4 2.4-3.1 44.1-57 47.9-61.8 3.1-4.1 48.4-62.5 51.2-66.1 3.1-4 4.4-5.7 11.8-15.2 3.6-4.6 6.5-8.7 6.5-9.2 0-.4-2.6-4.1-5.8-8.1-3.1-4.1-8.4-11-11.7-15.4-3.3-4.4-6.4-8.5-7-9.1-.5-.6-5.7-7.3-11.5-14.8-18.3-24-29.1-38.1-30.4-39.6-.6-.9-3.1-4.1-5.5-7.3-2.4-3.1-4.5-5.7-4.6-5.7-.1 0-3.1 3.7-6.6 8.2z"/></svg>