<?xml version="1.0" encoding="utf-8"?><svg xmlns="http://www.w3.org/2000/svg" xmlns:xlink="http://www.w3.org/1999/xlink"><symbol viewBox="0 0 17 12" id="arrow" xmlns="http://www.w3.org/2000/svg"><path d="M16.734 5.37a.397.397 0 0 0-.017-.018l-5.22-5.09C11.323.094 11.09 0 10.844 0s-.479.093-.653.263a.882.882 0 0 0 0 1.272L13.85 5.1H.923A.912.912 0 0 0 0 6c0 .496.414.9.923.9h12.926l-3.657 3.565a.882.882 0 0 0 0 1.272c.173.17.405.263.652.263s.479-.093.653-.263l5.22-5.089a.881.881 0 0 0 .017-1.279z"/></symbol><symbol viewBox="0 0 54 50.791" id="directions-chart" xmlns="http://www.w3.org/2000/svg"><path d="M53.933 9.252L50.642.91a1.078 1.078 0 0 0-1.67-.723l-8.856 3.27a1.085 1.085 0 0 0 .723 2.033l6.612-2.46-11.04 24.286-5.635-9.593a1.085 1.085 0 0 0-1.917.087l-8.11 17.304-6.525-12.5a1.034 1.034 0 0 0-.99-.587 1.087 1.087 0 0 0-.934.586L2.172 44.758V1.272a1.085 1.085 0 1 0-2.17 0v48.542a.842.842 0 0 0 0 .123v.203l.05.102.05.086.066.087.065.08.08.072.08.066.108.065.065.035.166.058h48.724a1.085 1.085 0 1 0 0-2.17H2.772l10.555-23.056 6.511 12.502a1.086 1.086 0 0 0 1.946-.045l8.168-17.42 5.65 9.615a1.085 1.085 0 0 0 1.924-.102L49.485 3.884l2.43 6.163a1.086 1.086 0 0 0 2.018-.795"/><path d="M0 0h54v50.791H0z"/></symbol><symbol viewBox="0 0 53 66.49" id="directions-hand" xmlns="http://www.w3.org/2000/svg"><path d="M41.178 24.74c-.456 0-.907.087-1.33.256v-.344a3.93 3.93 0 0 0-3.923-3.923h-.183a3.865 3.865 0 0 0-1.811.467 3.932 3.932 0 0 0-3.844-3.134c-.668 0-1.327.157-1.922.46v-5.67h6.941c.606 0 1.096-.49 1.096-1.096V1.096C36.202.49 35.712 0 35.106 0H12.45c-.605 0-1.096.49-1.096 1.096v10.66c0 .605.49 1.096 1.096 1.096h7.671v26.815l-6.422-5.26a6.752 6.752 0 0 0-9.082.38 1.096 1.096 0 0 0-.088 1.46L20.12 56.18v9.214a1.096 1.096 0 0 0 2.192 0V55.8c0-.244-.083-.48-.233-.672L6.91 35.722a4.56 4.56 0 0 1 5.385.358l8.227 6.744a1.096 1.096 0 0 0 1.79-.84V9.214a1.74 1.74 0 0 1 1.732-1.732h.183c.958 0 1.735.774 1.739 1.732v23.3a1.096 1.096 0 0 0 2.192 0V21.92c.1-.975.942-1.703 1.921-1.659a1.739 1.739 0 0 1 1.732 1.732v10.521a1.096 1.096 0 0 0 2.192 0V24.66a1.74 1.74 0 0 1 1.732-1.732h.182a1.74 1.74 0 0 1 1.74 1.732v7.854a1.096 1.096 0 0 0 2.191 0v-4.018a1.38 1.38 0 0 1 1.33-1.564c.869 0 1.578.696 1.593 1.564v18.916a11.302 11.302 0 0 1-3.331 8.038 1.095 1.095 0 0 0-.322.81v8.403a1.096 1.096 0 0 0 2.192 0v-7.986a13.472 13.472 0 0 0 3.653-9.265V28.496a3.785 3.785 0 0 0-3.785-3.756M24.234 5.283h-.183a3.931 3.931 0 0 0-3.93 3.93v1.462h-6.576V2.192h20.458v8.468h-5.845V9.2a3.93 3.93 0 0 0-3.924-3.916m27.67-.9h-10.96a1.096 1.096 0 1 0 0 2.192h10.96a1.096 1.096 0 1 0 0-2.192"/><path d="M41.069 10.96a1.096 1.096 0 0 0-1.55 1.549l9.77 9.79a1.097 1.097 0 0 0 1.52-1.548l-9.74-9.791zM9.205 14.57a1.096 1.096 0 0 0-1.55 0L.35 21.875a1.096 1.096 0 1 0 1.549 1.549l7.307-7.307c.442-.412.493-1.077.081-1.52-.018-.02-.036-.039-.081-.029"/><path d="M0 0h53v66.49H0z"/></symbol><symbol viewBox="0 0 55 51.382" id="directions-monitor" xmlns="http://www.w3.org/2000/svg"><path d="M50.1 0H4.9C2.213 0 .064 1.76 0 4.038V37.14c0 2.265 2.171 4.11 4.9 4.11h21.153v7.96H13.388a1.085 1.085 0 1 0 0 2.172h28.224a1.086 1.086 0 0 0 0-2.171H28.224v-7.96H50.1c2.728 0 4.899-1.846 4.899-4.111V4.11C55 1.846 52.829 0 50.1 0m2.729 37.14c0 1.048-1.252 1.94-2.728 1.94H4.899c-1.447 0-2.728-.892-2.728-1.94V4.067c0-1.042 1.252-1.896 2.728-1.896h45.202c1.447 0 2.728.89 2.728 1.94V37.14z"/><path d="M31.313 14.206a1.086 1.086 0 0 0-1.447.47L24.02 26.053a1.086 1.086 0 0 0 1.932.991l5.833-11.398a1.085 1.085 0 0 0-.47-1.44m6.939-.398a1.085 1.085 0 0 0-1.534 1.534l5.412 5.406-5.412 5.406a1.085 1.085 0 1 0 1.48 1.589c.018-.019.037-.036.054-.055l6.18-6.173a1.085 1.085 0 0 0 0-1.534l-6.18-6.173zm-19.149 0a1.085 1.085 0 0 0-1.534 0l-6.18 6.18a1.085 1.085 0 0 0 0 1.534l6.18 6.18a1.085 1.085 0 0 0 1.534-1.534l-5.413-5.405 5.413-5.42a1.085 1.085 0 0 0 0-1.535"/><path d="M0 0h55v51.382H0z"/></symbol><symbol viewBox="0 0 65 56.338" id="directions-monitor-check" xmlns="http://www.w3.org/2000/svg"><path d="M60.117 0H15.322c-2.675 0-4.818 1.88-4.88 4.31v9.395a1.1 1.1 0 1 0 2.2 0V4.338c.03-1.18 1.233-2.138 2.68-2.138h44.795c1.48 0 2.683.979 2.683 2.182v35.889c0 1.204-1.204 2.184-2.683 2.184H15.322c-1.477 0-2.68-.98-2.68-2.184v-5.138a1.1 1.1 0 1 0-2.2 0v5.138c0 2.417 2.19 4.384 4.88 4.384h21.13v9.484H22.49a1.1 1.1 0 1 0 0 2.2h29.998a1.1 1.1 0 0 0 0-2.2H38.652v-9.485h21.465c2.692 0 4.883-1.967 4.883-4.384V4.382C65 1.966 62.81 0 60.117 0"/><path d="M30.395 17.946h23.573a1.1 1.1 0 1 0 0-2.2H30.395a1.1 1.1 0 1 0 0 2.2m0 6.964h23.573a1.1 1.1 0 1 0 0-2.2H30.395a1.1 1.1 0 1 0 0 2.2m0 7.35h23.573a1.1 1.1 0 0 0 0-2.2H30.395a1.1 1.1 0 1 0 0 2.2m-19.077-5.026c.284 0 .565-.11.778-.322l15.89-15.89a1.1 1.1 0 1 0-1.555-1.556L11.198 24.699l-9.46-6.735a1.1 1.1 0 0 0-1.275 1.792L10.68 27.03c.192.137.415.204.637.204"/><path d="M0 0h64.999v56.338H0z"/></symbol><symbol viewBox="0 0 62.001 47.51" id="directions-scroll" xmlns="http://www.w3.org/2000/svg"><path d="M60.893 38.165H49.532V8.699A8.625 8.625 0 0 0 40.907.075H9.645c-.166 0-.33-.043-.503-.057A8.82 8.82 0 0 0 2.58 2.36 8.046 8.046 0 0 0 0 8.268c0 .596.482 1.078 1.078 1.078h13.957v29.329a8.717 8.717 0 0 0 8.042 8.832h30.299A8.444 8.444 0 0 0 62 39.247v-.004a1.08 1.08 0 0 0-1.077-1.079h-.03M2.257 7.19A5.967 5.967 0 0 1 4.06 3.934a6.587 6.587 0 0 1 3.895-1.703c.083.01.168.01.251 0h1.366A6.505 6.505 0 0 1 14.84 7.19H2.257zm20.95 38.161a6.561 6.561 0 0 1-6.016-6.676V8.835a8.948 8.948 0 0 0-2.875-6.604h26.591a6.468 6.468 0 0 1 6.469 6.468v29.466H31.148c-.595 0-1.078.483-1.078 1.078-.01 1.639-.7 3.2-1.905 4.312a6.658 6.658 0 0 1-4.959 1.796m30.185 0H29.409l.222-.2a8.08 8.08 0 0 0 2.523-4.83h27.561a6.368 6.368 0 0 1-6.34 5.03h.016z"/><path d="M22.581 15.886h19.404a1.078 1.078 0 1 0 0-2.156H22.581a1.077 1.077 0 1 0 0 2.156m0 6.468h19.404a1.078 1.078 0 1 0 0-2.156H22.581a1.077 1.077 0 1 0 0 2.156m11.139 5.39c0-.595-.482-1.078-1.077-1.078H22.58a1.078 1.078 0 1 0 0 2.156h10.062c.595 0 1.078-.483 1.078-1.078"/><path d="M0 0h62.001v47.509H0z"/></symbol><symbol viewBox="0 0 57 51.949" id="directions-settings" xmlns="http://www.w3.org/2000/svg"><path d="M22.006 43.291H2.165V12.266h46.898v3.968a1.082 1.082 0 1 0 2.164 0V1.082C51.227.484 50.743 0 50.145 0H1.082C.484 0 0 .484 0 1.082v43.291c0 .598.484 1.083 1.082 1.083h20.924a1.082 1.082 0 1 0 0-2.165m27.057-33.19H2.165V2.165h46.898V10.1z"/><path d="M6.133 7.215H9.74a1.082 1.082 0 1 0 0-2.164H6.133a1.082 1.082 0 1 0 0 2.164m7.937 0h3.607a1.082 1.082 0 1 0 0-2.164H14.07a1.082 1.082 0 1 0 0 2.164m25.613 20.203a7.216 7.216 0 1 0 .002 14.432 7.216 7.216 0 0 0-.002-14.432m0 12.266a5.05 5.05 0 1 1 0-10.102 5.05 5.05 0 0 1 0 10.102"/><path d="M56.076 30.773l-4.127-.628a13.182 13.182 0 0 0-.78-1.883l2.483-3.37a1.083 1.083 0 0 0-.109-1.443l-3.434-3.434a1.083 1.083 0 0 0-1.443-.108l-3.355 2.475a13.24 13.24 0 0 0-1.869-.736l-.62-4.113a1.082 1.082 0 0 0-1.068-.938h-4.863c-.535.001-.99.394-1.068.924l-.62 4.127a13.19 13.19 0 0 0-1.898.786l-3.355-2.475a1.082 1.082 0 0 0-1.443.109L25.073 23.5a1.082 1.082 0 0 0-.109 1.443l2.482 3.37c-.295.59-.547 1.203-.75 1.832l-4.142.628a1.083 1.083 0 0 0-.909 1.068v4.863c.002.535.394.989.924 1.068l4.163.627c.21.635.468 1.252.772 1.847L25 43.638a1.083 1.083 0 0 0 .109 1.443l3.434 3.434c.382.4 1.005.446 1.443.108l3.406-2.51c.59.297 1.203.55 1.832.757l.635 4.185c.089.505.52.878 1.032.894h4.863c.535-.001.99-.394 1.068-.923l.635-4.185a13.22 13.22 0 0 0 1.832-.758l3.406 2.511c.438.338 1.06.292 1.443-.108l3.434-3.434c.4-.383.446-1.005.109-1.443l-2.504-3.391c.303-.586.56-1.194.772-1.819l4.163-.627c.515-.094.889-.544.887-1.068V31.84a1.082 1.082 0 0 0-.923-1.068m-1.241 5l-3.918.592a1.081 1.081 0 0 0-.88.786 11.049 11.049 0 0 1-1.104 2.648 1.08 1.08 0 0 0 .065 1.183l2.36 3.197-2.122 2.12-3.21-2.366a1.082 1.082 0 0 0-1.184-.065c-.827.476-1.712.842-2.634 1.09a1.084 1.084 0 0 0-.786.88l-.599 3.947h-3.001l-.6-3.947a1.084 1.084 0 0 0-.786-.88 10.984 10.984 0 0 1-2.633-1.09 1.082 1.082 0 0 0-1.183.065L29.409 46.3l-2.121-2.121 2.366-3.197c.255-.347.28-.81.065-1.183a11.048 11.048 0 0 1-1.104-2.648 1.082 1.082 0 0 0-.88-.786l-3.925-.592v-3.002l3.903-.591c.428-.064.777-.376.888-.794.248-.937.62-1.837 1.104-2.677a1.08 1.08 0 0 0-.065-1.183l-2.338-3.167 2.121-2.122 3.16 2.33c.348.255.812.28 1.184.066.844-.49 1.749-.867 2.691-1.119.418-.11.73-.46.794-.887l.57-3.867h3.001l.585 3.874c.063.428.375.776.793.888.943.251 1.848.628 2.692 1.118.371.217.837.192 1.183-.066l3.16-2.33 2.121 2.121-2.337 3.168c-.255.347-.28.811-.065 1.184.484.84.855 1.74 1.104 2.676.11.419.46.73.887.794l3.903.592-.014 2.994z"/><path d="M0 0h57v51.949H0z"/></symbol><symbol viewBox="0 0 18.508 23.199" id="flag-sm" xmlns="http://www.w3.org/2000/svg"><path stroke="#000" stroke-width="2" stroke-miterlimit="10" d="M1 23.199V1.577L16.078 8.69l-14.94 6.445"/></symbol><symbol viewBox="0 0 32 18" id="hamburger" xmlns="http://www.w3.org/2000/svg"><path d="M0 1h32M0 9h32M0 17h32" stroke="#000" stroke-width="2" stroke-miterlimit="10"/></symbol><symbol id="location" xml:space="preserve" viewBox="0 0 55.659 91.335" xmlns="http://www.w3.org/2000/svg"><path d="M35.588 66.112l14.993-24.108c.049-.078.09-.16.122-.245a26.697 26.697 0 0 0 3.956-13.969C54.659 13.018 42.641 1 27.869 1S1.078 13.018 1.078 27.79c0 4.925 1.369 9.75 3.96 13.975.03.074.065.146.107.216L19.6 66.172C8.379 67.758 1 72.372 1 77.969c0 6.935 11.785 12.366 26.829 12.366s26.829-5.432 26.829-12.366c.001-5.623-7.722-10.34-19.07-11.857zM7.731 40.414A23.708 23.708 0 0 1 4.078 27.79C4.078 14.672 14.75 4 27.869 4c13.118 0 23.79 10.672 23.79 23.79 0 4.457-1.263 8.822-3.652 12.624-.05.08-.091.163-.124.249L32.043 66.13c-.238.365-.285.448-.576.926l-4 6.432L7.865 40.684a1.508 1.508 0 0 0-.134-.27zM27.83 87.335c-14.043 0-23.829-4.937-23.829-9.366 0-4.02 7.37-7.808 17.283-8.981l4.87 8.151c.269.449.751.726 1.274.73h.013c.518 0 1-.268 1.274-.708l5.12-8.232c10.071 1.091 17.823 4.975 17.823 9.04.001 4.43-9.785 9.366-23.828 9.366z"/><path d="M37.571 27.79c0-5.371-4.37-9.741-9.741-9.741s-9.741 4.37-9.741 9.741 4.37 9.741 9.741 9.741c5.371 0 9.741-4.37 9.741-9.741zm-16.482 0c0-3.717 3.024-6.741 6.741-6.741s6.741 3.024 6.741 6.741-3.023 6.741-6.741 6.741-6.741-3.024-6.741-6.741z"/></symbol><symbol viewBox="0 0 78.036 58.127" id="mail" xmlns="http://www.w3.org/2000/svg"><path d="M76.966 56.085c.042-.145.07-.298.07-.459V2.499c0-.162-.028-.316-.07-.462-.007-.02-.01-.04-.017-.06a1.543 1.543 0 0 0-.244-.46c-.007-.009-.008-.02-.015-.029-.004-.005-.01-.007-.014-.012a1.35 1.35 0 0 0-.39-.323l-.031-.02a1.18 1.18 0 0 0-.451-.123c-.016-.001-.031-.005-.047-.005-.015-.001-.028-.005-.043-.005H2.324c-.015 0-.03.004-.044.005l-.042.005a1.195 1.195 0 0 0-.457.125c-.01.004-.016.011-.025.015a1.33 1.33 0 0 0-.395.327c-.005.005-.01.006-.014.011-.007.008-.008.019-.015.028a1.55 1.55 0 0 0-.245.461c-.007.02-.01.04-.016.061-.043.146-.071.3-.071.462v53.128c0 .164.03.32.072.468l.016.059c.058.172.142.327.247.462.006.008.008.018.014.026l.019.018c.043.051.09.096.14.14.022.019.042.042.064.06.059.046.121.083.186.117.016.008.03.021.046.028.16.077.335.121.52.121h73.388c.184 0 .36-.043.52-.121.024-.012.047-.03.071-.044.055-.031.11-.063.16-.102.026-.021.05-.048.076-.071a1.28 1.28 0 0 0 .127-.129l.022-.022c.008-.009.01-.021.016-.03a1.55 1.55 0 0 0 .243-.458c.009-.022.013-.043.02-.065zM3.647 5.901l22.269 23.061L3.647 52.207V5.901zm45.642 21.931c-.092.068-.189.125-.266.221-.029.036-.038.083-.064.121l-9.94 10.294L5.733 3.999h66.569L49.289 27.832zm-21.412 3.161l10.249 10.613c.253.262.572.393.892.393.32 0 .64-.131.892-.393l10.122-10.481 22.265 23.002H5.714l22.163-23.134zm24.117-1.9L74.39 5.901v46.33L51.994 29.093z" stroke="#000" stroke-width="2" stroke-miterlimit="10"/></symbol><symbol viewBox="0 0 30 30" id="main-circle" xmlns="http://www.w3.org/2000/svg"><defs><path id="la" d="M0 0h30v30H0z"/></defs><clipPath id="lb"><use xlink:href="#la" overflow="visible"/></clipPath><path d="M15 2c7.168 0 13 5.832 13 13s-5.832 13-13 13S2 22.168 2 15 7.832 2 15 2m0-2C6.716 0 0 6.716 0 15s6.716 15 15 15 15-6.716 15-15S23.284 0 15 0" clip-path="url(#lb)"/></symbol><symbol viewBox="0 0 27 27" id="main-square" xmlns="http://www.w3.org/2000/svg"><path d="M2 2h23v23H2V2zM0 27h27V0H0v27z"/></symbol><symbol viewBox="0 0 35.654 27.855" id="main-triangle" xmlns="http://www.w3.org/2000/svg"><path d="M35.654 27.855H0L17.827 0l17.827 27.855zm-32-2H32L17.827 3.71 3.654 25.855z"/></symbol><symbol id="mobile-phone" xml:space="preserve" viewBox="0 0 62.7 87.4" xmlns="http://www.w3.org/2000/svg"><path d="M52 1H10.7C5.4 1 1 5.3 1 10.6v66.2c0 5.3 4.3 9.6 9.7 9.6H52c5.3 0 9.7-4.3 9.7-9.6V10.6C61.7 5.3 57.4 1 52 1zm6.7 75.8c0 3.7-3 6.6-6.7 6.6H10.7c-3.7 0-6.7-3-6.7-6.6V10.6C4 6.9 7 4 10.7 4H52c3.7 0 6.7 3 6.7 6.6v66.2z"/><path d="M43.6 10.5H18.9c-.8 0-1.5.7-1.5 1.5s.7 1.5 1.5 1.5h24.7c.8 0 1.5-.7 1.5-1.5s-.7-1.5-1.5-1.5zM31.3 67.8c-2.8 0-5 2.3-5 5 0 1.3.5 2.6 1.5 3.5.9.9 2.2 1.4 3.5 1.4 2.8 0 5-2.3 5-5s-2.2-4.9-5-4.9zm.1 7c-.5 0-1-.2-1.4-.6s-.6-.9-.6-1.4c0-1.1.9-2 2-2s2 .9 2 2-.9 2-2 2z"/></symbol><symbol viewBox="0 0 21 21" id="phone" xmlns="http://www.w3.org/2000/svg"><path d="M16 11a4.994 4.994 0 0 0-4.541 2.906 9.984 9.984 0 0 1-4.365-4.365A4.996 4.996 0 0 0 10 5c0-2.757-2.243-5-5-5S0 2.243 0 5c0 8.822 7.178 16 16 16 2.757 0 5-2.243 5-5s-2.243-5-5-5zm0 8C8.28 19 2 12.72 2 5c0-1.654 1.346-3 3-3s3 1.346 3 3a2.991 2.991 0 0 1-2.45 2.946l-1.182.217.428 1.124a11.987 11.987 0 0 0 6.918 6.918l1.124.428.216-1.184A2.991 2.991 0 0 1 16 13c1.654 0 3 1.346 3 3s-1.346 3-3 3z"/></symbol><symbol viewBox="0 0 51 38" id="tools-arrows" xmlns="http://www.w3.org/2000/svg"><path d="M40.688 1.811l6.686 6.778H9.988c-.587 0-1.063.482-1.063 1.077s.476 1.077 1.063 1.077h37.386l-6.686 6.778a1.087 1.087 0 0 0-.053 1.522 1.052 1.052 0 0 0 1.554 0l8.5-8.616a1.087 1.087 0 0 0 0-1.522L42.19.289a1.052 1.052 0 0 0-1.501.054 1.088 1.088 0 0 0 0 1.468zM8.81 18.957l-8.5 8.616a1.087 1.087 0 0 0 0 1.522l8.5 8.616c.43.405 1.102.381 1.502-.054.38-.413.38-1.055 0-1.468L3.626 29.41h37.386a1.07 1.07 0 0 0 1.063-1.077 1.07 1.07 0 0 0-1.063-1.077H3.626l6.686-6.778c.4-.435.377-1.117-.053-1.522a1.052 1.052 0 0 0-1.448 0z"/></symbol><symbol viewBox="0 0 85.127 91.324" id="tools-hat" xmlns="http://www.w3.org/2000/svg"><defs><path id="ra" d="M0 0h85.127v91.324H0z"/></defs><clipPath id="rb"><use xlink:href="#ra" overflow="visible"/></clipPath><path d="M84.46 27.628L43.397.252a1.501 1.501 0 0 0-1.665 0L.668 27.628a1.503 1.503 0 0 0 0 2.496l6.237 4.158v21.913c0 .511.26.987.69 1.263l34.4 22.052a1.49 1.49 0 0 0 1.654-.023l17.946-12.244v8.538l-6.684 13.372a1.506 1.506 0 0 0 .063 1.46c.275.441.758.711 1.278.711h13.687a1.5 1.5 0 0 0 1.342-2.17L64.594 75.78V65.196l11.377-7.762a1.5 1.5 0 0 0 .655-1.239V35.346l7.833-5.222a1.5 1.5 0 0 0 0-2.496M58.68 88.324l4.416-8.834 4.418 8.834h-8.835zM42.778 76.45L9.905 55.375V36.282l31.827 21.22a1.498 1.498 0 0 0 1.665 0l18.199-12.135v18.244l-18.818 12.84zm30.848-21.047l-9.03 6.162V43.367l9.03-6.02v18.056zm.98-22.315a1.477 1.477 0 0 0-.574.383l-10.937 7.291-19.699-13.134a1.5 1.5 0 0 0-1.665 2.496l18.66 12.44L42.563 54.45 4.204 28.876l38.36-25.573 38.36 25.573-6.319 4.212z" clip-path="url(#rb)"/></symbol><symbol viewBox="0 0 86.178 86.784" id="tools-ok" xmlns="http://www.w3.org/2000/svg"><defs><path id="sa" d="M0 0h86.178v86.784H0z"/></defs><clipPath id="sb"><use xlink:href="#sa" overflow="visible"/></clipPath><path d="M82.382 43.408c2.29-1.474 3.795-3.915 3.795-6.676 0-4.478-3.97-8.12-8.852-8.12H53.74c1.114-2.09 2.244-5.515 1.985-10.615C55.218 7.542 48.874 2.118 45.205.561c-2.164-.918-4.519-.7-6.298.583-1.786 1.288-3.802 4.246-3.263 11.026.558 7.046-8.41 14.69-12.78 17.973v-2.682a1.5 1.5 0 0 0-1.5-1.5H1.5a1.5 1.5 0 0 0-1.5 1.5v54.182a1.5 1.5 0 0 0 1.5 1.5h19.863a1.5 1.5 0 0 0 1.5-1.5v-2.737c5.654 2.033 21.553 7.511 29.41 7.768l15.777.11c4.875 0 8.84-3.805 8.84-8.48 0-2.154-.843-4.116-2.222-5.615 4.208-.655 7.433-4.148 7.433-8.36 0-2.242-.92-4.279-2.41-5.797 3.735-.997 6.487-4.278 6.487-8.172 0-2.876-1.505-5.418-3.796-6.952M3 80.142V28.96h16.863v4.02c-.002.04 0 .08 0 .12v43.634c0 .041-.003.082 0 .123v3.286H3zm74.325-24.294h-7.689l-.01.001H68.05a1.5 1.5 0 1 0 0 3h5.195c3.228 0 5.855 2.46 5.855 5.48 0 3.021-2.627 5.48-5.855 5.48H68.07l-.02-.002h-5.514a1.5 1.5 0 0 0 0 3h5.504l.01.001h.02c3.211.011 5.82 2.47 5.82 5.494 0 3.022-2.62 5.481-5.83 5.481l-15.728-.109c-7.822-.257-25.169-6.397-29.469-7.96V33.85c3.25-2.235 16.556-12.025 15.771-21.917-.334-4.205.386-7.172 2.027-8.355 1.365-.983 2.926-.442 3.373-.254 3.023 1.284 8.26 5.85 8.694 14.823.396 7.798-2.762 10.715-2.883 10.823a1.5 1.5 0 1 0 .971 2.643h26.508c3.227 0 5.852 2.297 5.852 5.12 0 2.837-2.625 5.146-5.852 5.146h-6.413a1.5 1.5 0 1 0 0 3h6.413c3.227 0 5.852 2.458 5.852 5.481.001 3.025-2.624 5.488-5.85 5.488" clip-path="url(#sb)"/></symbol><symbol id="tools-settings" xml:space="preserve" viewBox="0 0 99.118 88.087" xmlns="http://www.w3.org/2000/svg"><path d="M51.317 47.224a1.501 1.501 0 0 0-2.019.652L39.249 67.517a1.5 1.5 0 0 0 2.67 1.368l10.048-19.641a1.498 1.498 0 0 0-.65-2.02zm10.515-.75a1.5 1.5 0 1 0-2.121 2.121l9.583 9.58-9.583 9.58a1.5 1.5 0 1 0 2.122 2.121l10.645-10.641a1.5 1.5 0 0 0 0-2.122L61.832 46.474zm-30.297.001a1.5 1.5 0 0 0-2.121 0l-10.643 10.64a1.5 1.5 0 0 0 0 2.122l10.643 10.64c.293.293.677.439 1.061.439s.768-.146 1.061-.439a1.5 1.5 0 0 0 0-2.121l-9.581-9.58 9.581-9.58a1.5 1.5 0 0 0-.001-2.121z"/><path d="M88.498 9.664H1.75a1.5 1.5 0 0 0-1.5 1.5v75.173a1.5 1.5 0 0 0 1.5 1.5h86.748a1.5 1.5 0 0 0 1.5-1.5V11.164a1.5 1.5 0 0 0-1.5-1.5zm-1.5 3v18.862H3.25V12.664h83.748zM3.25 84.837V34.526h83.748v50.311H3.25z"/><path d="M11.186 23.101h6.89a1.5 1.5 0 1 0 0-3h-6.89a1.5 1.5 0 1 0 0 3zm14.764 0h6.89a1.5 1.5 0 1 0 0-3h-6.89a1.5 1.5 0 1 0 0 3zM95.624.25h3v80h-3z"/><path d="M9.771 3.25l-1-3h89l1 3z"/></symbol></svg>