<?xml version="1.0" encoding="utf-8"?><svg xmlns="http://www.w3.org/2000/svg" xmlns:xlink="http://www.w3.org/1999/xlink"><symbol viewBox="0 0 17 12" id="arrow" xmlns="http://www.w3.org/2000/svg"><path d="M16.734 5.37a.397.397 0 0 0-.017-.018l-5.22-5.09C11.323.094 11.09 0 10.844 0s-.479.093-.653.263a.882.882 0 0 0 0 1.272L13.85 5.1H.923A.912.912 0 0 0 0 6c0 .496.414.9.923.9h12.926l-3.657 3.565a.882.882 0 0 0 0 1.272c.173.17.405.263.652.263s.479-.093.653-.263l5.22-5.089a.881.881 0 0 0 .017-1.279z"/></symbol><symbol viewBox="0 0 54 50.791" id="directions-chart" xmlns="http://www.w3.org/2000/svg"><path d="M53.933 9.252L50.642.91a1.078 1.078 0 0 0-1.67-.723l-8.856 3.27a1.085 1.085 0 0 0 .723 2.033l6.612-2.46-11.04 24.286-5.635-9.593a1.085 1.085 0 0 0-1.917.087l-8.11 17.304-6.525-12.5a1.034 1.034 0 0 0-.99-.587 1.087 1.087 0 0 0-.934.586L2.172 44.758V1.272a1.085 1.085 0 1 0-2.17 0v48.542a.842.842 0 0 0 0 .123v.203l.05.102.05.086.066.087.065.08.08.072.08.066.108.065.065.035.166.058h48.724a1.085 1.085 0 1 0 0-2.17H2.772l10.555-23.056 6.511 12.502a1.086 1.086 0 0 0 1.946-.045l8.168-17.42 5.65 9.615a1.085 1.085 0 0 0 1.924-.102L49.485 3.884l2.43 6.163a1.086 1.086 0 0 0 2.018-.795"/></symbol><symbol viewBox="0 0 53 66.49" id="directions-hand" xmlns="http://www.w3.org/2000/svg"><path d="M41.178 24.74c-.456 0-.907.087-1.33.256v-.344a3.93 3.93 0 0 0-3.923-3.923h-.183a3.865 3.865 0 0 0-1.811.467 3.932 3.932 0 0 0-3.844-3.134c-.668 0-1.327.157-1.922.46v-5.67h6.941c.606 0 1.096-.49 1.096-1.096V1.096C36.202.49 35.712 0 35.106 0H12.45c-.605 0-1.096.49-1.096 1.096v10.66c0 .605.49 1.096 1.096 1.096h7.671v26.815l-6.422-5.26a6.752 6.752 0 0 0-9.082.38 1.096 1.096 0 0 0-.088 1.46L20.12 56.18v9.214a1.096 1.096 0 0 0 2.192 0V55.8c0-.244-.083-.48-.233-.672L6.91 35.722a4.56 4.56 0 0 1 5.385.358l8.227 6.744a1.096 1.096 0 0 0 1.79-.84V9.214a1.74 1.74 0 0 1 1.732-1.732h.183c.958 0 1.735.774 1.739 1.732v23.3a1.096 1.096 0 0 0 2.192 0V21.92c.1-.975.942-1.703 1.921-1.659a1.739 1.739 0 0 1 1.732 1.732v10.521a1.096 1.096 0 0 0 2.192 0V24.66a1.74 1.74 0 0 1 1.732-1.732h.182a1.74 1.74 0 0 1 1.74 1.732v7.854a1.096 1.096 0 0 0 2.191 0v-4.018a1.38 1.38 0 0 1 1.33-1.564c.869 0 1.578.696 1.593 1.564v18.916a11.302 11.302 0 0 1-3.331 8.038 1.095 1.095 0 0 0-.322.81v8.403a1.096 1.096 0 0 0 2.192 0v-7.986a13.472 13.472 0 0 0 3.653-9.265V28.496a3.785 3.785 0 0 0-3.785-3.756M24.234 5.283h-.183a3.931 3.931 0 0 0-3.93 3.93v1.462h-6.576V2.192h20.458v8.468h-5.845V9.2a3.93 3.93 0 0 0-3.924-3.916m27.67-.9h-10.96a1.096 1.096 0 1 0 0 2.192h10.96a1.096 1.096 0 1 0 0-2.192"/><path d="M41.069 10.96a1.096 1.096 0 0 0-1.55 1.549l9.77 9.79a1.097 1.097 0 0 0 1.52-1.548l-9.74-9.791zM9.205 14.57a1.096 1.096 0 0 0-1.55 0L.35 21.875a1.096 1.096 0 1 0 1.549 1.549l7.307-7.307c.442-.412.493-1.077.081-1.52-.018-.02-.036-.039-.081-.029"/></symbol><symbol viewBox="0 0 55 51.382" id="directions-monitor" xmlns="http://www.w3.org/2000/svg"><path d="M50.1 0H4.9C2.213 0 .064 1.76 0 4.038V37.14c0 2.265 2.171 4.11 4.9 4.11h21.153v7.96H13.388a1.085 1.085 0 1 0 0 2.172h28.224a1.086 1.086 0 0 0 0-2.171H28.224v-7.96H50.1c2.728 0 4.899-1.846 4.899-4.111V4.11C55 1.846 52.829 0 50.1 0m2.729 37.14c0 1.048-1.252 1.94-2.728 1.94H4.899c-1.447 0-2.728-.892-2.728-1.94V4.067c0-1.042 1.252-1.896 2.728-1.896h45.202c1.447 0 2.728.89 2.728 1.94V37.14z"/><path d="M31.313 14.206a1.086 1.086 0 0 0-1.447.47L24.02 26.053a1.086 1.086 0 0 0 1.932.991l5.833-11.398a1.085 1.085 0 0 0-.47-1.44m6.939-.398a1.085 1.085 0 0 0-1.534 1.534l5.412 5.406-5.412 5.406a1.085 1.085 0 1 0 1.48 1.589c.018-.019.037-.036.054-.055l6.18-6.173a1.085 1.085 0 0 0 0-1.534l-6.18-6.173zm-19.149 0a1.085 1.085 0 0 0-1.534 0l-6.18 6.18a1.085 1.085 0 0 0 0 1.534l6.18 6.18a1.085 1.085 0 0 0 1.534-1.534l-5.413-5.405 5.413-5.42a1.085 1.085 0 0 0 0-1.535"/></symbol><symbol viewBox="0 0 65 56.338" id="directions-monitor-check" xmlns="http://www.w3.org/2000/svg"><path d="M60.117 0H15.322c-2.675 0-4.818 1.88-4.88 4.31v9.395a1.1 1.1 0 1 0 2.2 0V4.338c.03-1.18 1.233-2.138 2.68-2.138h44.795c1.48 0 2.683.979 2.683 2.182v35.889c0 1.204-1.204 2.184-2.683 2.184H15.322c-1.477 0-2.68-.98-2.68-2.184v-5.138a1.1 1.1 0 1 0-2.2 0v5.138c0 2.417 2.19 4.384 4.88 4.384h21.13v9.484H22.49a1.1 1.1 0 1 0 0 2.2h29.998a1.1 1.1 0 0 0 0-2.2H38.652v-9.485h21.465c2.692 0 4.883-1.967 4.883-4.384V4.382C65 1.966 62.81 0 60.117 0"/><path d="M30.395 17.946h23.573a1.1 1.1 0 1 0 0-2.2H30.395a1.1 1.1 0 1 0 0 2.2m0 6.964h23.573a1.1 1.1 0 1 0 0-2.2H30.395a1.1 1.1 0 1 0 0 2.2m0 7.35h23.573a1.1 1.1 0 0 0 0-2.2H30.395a1.1 1.1 0 1 0 0 2.2m-19.077-5.026c.284 0 .565-.11.778-.322l15.89-15.89a1.1 1.1 0 1 0-1.555-1.556L11.198 24.699l-9.46-6.735a1.1 1.1 0 0 0-1.275 1.792L10.68 27.03c.192.137.415.204.637.204"/></symbol><symbol viewBox="0 0 62.001 47.51" id="directions-scroll" xmlns="http://www.w3.org/2000/svg"><path d="M60.893 38.165H49.532V8.699A8.625 8.625 0 0 0 40.907.075H9.645c-.166 0-.33-.043-.503-.057A8.82 8.82 0 0 0 2.58 2.36 8.046 8.046 0 0 0 0 8.268c0 .596.482 1.078 1.078 1.078h13.957v29.329a8.717 8.717 0 0 0 8.042 8.832h30.299A8.444 8.444 0 0 0 62 39.247v-.004a1.08 1.08 0 0 0-1.077-1.079h-.03M2.257 7.19A5.967 5.967 0 0 1 4.06 3.934a6.587 6.587 0 0 1 3.895-1.703c.083.01.168.01.251 0h1.366A6.505 6.505 0 0 1 14.84 7.19H2.257zm20.95 38.161a6.561 6.561 0 0 1-6.016-6.676V8.835a8.948 8.948 0 0 0-2.875-6.604h26.591a6.468 6.468 0 0 1 6.469 6.468v29.466H31.148c-.595 0-1.078.483-1.078 1.078-.01 1.639-.7 3.2-1.905 4.312a6.658 6.658 0 0 1-4.959 1.796m30.185 0H29.409l.222-.2a8.08 8.08 0 0 0 2.523-4.83h27.561a6.368 6.368 0 0 1-6.34 5.03h.016z"/><path d="M22.581 15.886h19.404a1.078 1.078 0 1 0 0-2.156H22.581a1.077 1.077 0 1 0 0 2.156m0 6.468h19.404a1.078 1.078 0 1 0 0-2.156H22.581a1.077 1.077 0 1 0 0 2.156m11.139 5.39c0-.595-.482-1.078-1.077-1.078H22.58a1.078 1.078 0 1 0 0 2.156h10.062c.595 0 1.078-.483 1.078-1.078"/></symbol><symbol viewBox="0 0 57 51.949" id="directions-settings" xmlns="http://www.w3.org/2000/svg"><path d="M22.006 43.291H2.165V12.266h46.898v3.968a1.082 1.082 0 1 0 2.164 0V1.082C51.227.484 50.743 0 50.145 0H1.082C.484 0 0 .484 0 1.082v43.291c0 .598.484 1.083 1.082 1.083h20.924a1.082 1.082 0 1 0 0-2.165m27.057-33.19H2.165V2.165h46.898V10.1z"/><path d="M6.133 7.215H9.74a1.082 1.082 0 1 0 0-2.164H6.133a1.082 1.082 0 1 0 0 2.164m7.937 0h3.607a1.082 1.082 0 1 0 0-2.164H14.07a1.082 1.082 0 1 0 0 2.164m25.613 20.203a7.216 7.216 0 1 0 .002 14.432 7.216 7.216 0 0 0-.002-14.432m0 12.266a5.05 5.05 0 1 1 0-10.102 5.05 5.05 0 0 1 0 10.102"/><path d="M56.076 30.773l-4.127-.628a13.182 13.182 0 0 0-.78-1.883l2.483-3.37a1.083 1.083 0 0 0-.109-1.443l-3.434-3.434a1.083 1.083 0 0 0-1.443-.108l-3.355 2.475a13.24 13.24 0 0 0-1.869-.736l-.62-4.113a1.082 1.082 0 0 0-1.068-.938h-4.863c-.535.001-.99.394-1.068.924l-.62 4.127a13.19 13.19 0 0 0-1.898.786l-3.355-2.475a1.082 1.082 0 0 0-1.443.109L25.073 23.5a1.082 1.082 0 0 0-.109 1.443l2.482 3.37c-.295.59-.547 1.203-.75 1.832l-4.142.628a1.083 1.083 0 0 0-.909 1.068v4.863c.002.535.394.989.924 1.068l4.163.627c.21.635.468 1.252.772 1.847L25 43.638a1.083 1.083 0 0 0 .109 1.443l3.434 3.434c.382.4 1.005.446 1.443.108l3.406-2.51c.59.297 1.203.55 1.832.757l.635 4.185c.089.505.52.878 1.032.894h4.863c.535-.001.99-.394 1.068-.923l.635-4.185a13.22 13.22 0 0 0 1.832-.758l3.406 2.511c.438.338 1.06.292 1.443-.108l3.434-3.434c.4-.383.446-1.005.109-1.443l-2.504-3.391c.303-.586.56-1.194.772-1.819l4.163-.627c.515-.094.889-.544.887-1.068V31.84a1.082 1.082 0 0 0-.923-1.068m-1.241 5l-3.918.592a1.081 1.081 0 0 0-.88.786 11.049 11.049 0 0 1-1.104 2.648 1.08 1.08 0 0 0 .065 1.183l2.36 3.197-2.122 2.12-3.21-2.366a1.082 1.082 0 0 0-1.184-.065c-.827.476-1.712.842-2.634 1.09a1.084 1.084 0 0 0-.786.88l-.599 3.947h-3.001l-.6-3.947a1.084 1.084 0 0 0-.786-.88 10.984 10.984 0 0 1-2.633-1.09 1.082 1.082 0 0 0-1.183.065L29.409 46.3l-2.121-2.121 2.366-3.197c.255-.347.28-.81.065-1.183a11.048 11.048 0 0 1-1.104-2.648 1.082 1.082 0 0 0-.88-.786l-3.925-.592v-3.002l3.903-.591c.428-.064.777-.376.888-.794.248-.937.62-1.837 1.104-2.677a1.08 1.08 0 0 0-.065-1.183l-2.338-3.167 2.121-2.122 3.16 2.33c.348.255.812.28 1.184.066.844-.49 1.749-.867 2.691-1.119.418-.11.73-.46.794-.887l.57-3.867h3.001l.585 3.874c.063.428.375.776.793.888.943.251 1.848.628 2.692 1.118.371.217.837.192 1.183-.066l3.16-2.33 2.121 2.121-2.337 3.168c-.255.347-.28.811-.065 1.184.484.84.855 1.74 1.104 2.676.11.419.46.73.887.794l3.903.592-.014 2.994z"/></symbol><symbol viewBox="0 0 18.508 23.199" id="flag-sm" xmlns="http://www.w3.org/2000/svg"><path stroke="#000" stroke-width="2" stroke-miterlimit="10" d="M1 23.199V1.577L16.078 8.69l-14.94 6.445"/></symbol><symbol viewBox="0 0 32 18" id="hamburger" xmlns="http://www.w3.org/2000/svg"><path d="M0 1h32M0 9h32M0 17h32" stroke="#000" stroke-width="2" stroke-miterlimit="10"/></symbol><symbol id="location" xml:space="preserve" viewBox="0 0 55.659 91.335" xmlns="http://www.w3.org/2000/svg"><path d="M35.588 66.112l14.993-24.108c.049-.078.09-.16.122-.245a26.697 26.697 0 0 0 3.956-13.969C54.659 13.018 42.641 1 27.869 1S1.078 13.018 1.078 27.79c0 4.925 1.369 9.75 3.96 13.975.03.074.065.146.107.216L19.6 66.172C8.379 67.758 1 72.372 1 77.969c0 6.935 11.785 12.366 26.829 12.366s26.829-5.432 26.829-12.366c.001-5.623-7.722-10.34-19.07-11.857zM7.731 40.414A23.708 23.708 0 0 1 4.078 27.79C4.078 14.672 14.75 4 27.869 4c13.118 0 23.79 10.672 23.79 23.79 0 4.457-1.263 8.822-3.652 12.624-.05.08-.091.163-.124.249L32.043 66.13c-.238.365-.285.448-.576.926l-4 6.432L7.865 40.684a1.508 1.508 0 0 0-.134-.27zM27.83 87.335c-14.043 0-23.829-4.937-23.829-9.366 0-4.02 7.37-7.808 17.283-8.981l4.87 8.151c.269.449.751.726 1.274.73h.013c.518 0 1-.268 1.274-.708l5.12-8.232c10.071 1.091 17.823 4.975 17.823 9.04.001 4.43-9.785 9.366-23.828 9.366z"/><path d="M37.571 27.79c0-5.371-4.37-9.741-9.741-9.741s-9.741 4.37-9.741 9.741 4.37 9.741 9.741 9.741c5.371 0 9.741-4.37 9.741-9.741zm-16.482 0c0-3.717 3.024-6.741 6.741-6.741s6.741 3.024 6.741 6.741-3.023 6.741-6.741 6.741-6.741-3.024-6.741-6.741z"/></symbol><symbol viewBox="0 0 146.532 44.931" id="logo-monocolor" xmlns="http://www.w3.org/2000/svg"><path d="M64.277 37.6h-1.692v5.939h-.773V37.6H60.12v-.696h4.157v.696zm1.044-.696h1.264c.794 0 1.379.156 1.755.468.424.344.637.82.637 1.423 0 .516-.183.956-.549 1.317-.365.361-.917.542-1.655.542h-.68v2.885h-.772v-6.635zm.773.696v2.358h.637c.46 0 .82-.106 1.081-.319.261-.212.392-.507.392-.884 0-.77-.512-1.155-1.535-1.155h-.575zm8.146 5.939l-.814-1.87h-2.967l-.835 1.87h-.857l3.207-6.953 3.123 6.953h-.857zm-3.478-2.567h2.36l-1.17-2.655-1.19 2.655zm6.088-4.068V39.6h3.573v-2.696h.772v6.635h-.772v-3.242h-3.572v3.242h-.773v-6.635h.773zm11.469.548v.915a3.213 3.213 0 0 0-.909-.617 3.004 3.004 0 0 0-1.2-.26c-.802 0-1.469.268-2 .802-.534.534-.8 1.188-.8 1.965 0 .834.29 1.495.872 1.979.581.483 1.227.726 1.937.726a2.91 2.91 0 0 0 1.296-.308 3.1 3.1 0 0 0 .804-.558v.915a3.647 3.647 0 0 1-2.1.647c-1.03 0-1.889-.328-2.574-.985s-1.029-1.465-1.029-2.426c0-.989.346-1.81 1.04-2.467.692-.657 1.561-.985 2.605-.985a3.42 3.42 0 0 1 2.058.657zm4.428 6.087v-.935h-.188c-.494 0-.935-.056-1.322-.17-.385-.112-.694-.255-.923-.427-.23-.172-.42-.378-.57-.617s-.25-.468-.302-.691a2.937 2.937 0 0 1-.079-.682c0-.231.026-.459.079-.68.051-.223.153-.454.302-.692.15-.239.34-.444.57-.617.23-.172.538-.314.923-.428a4.742 4.742 0 0 1 1.322-.169h.188v-.796h.773v.796h.188c.494 0 .935.057 1.321.17.386.113.695.255.924.427.23.173.42.378.57.617.15.238.25.469.302.692.053.221.079.449.079.68 0 .233-.026.46-.079.682-.051.223-.153.453-.302.691s-.34.445-.57.617c-.23.172-.538.315-.924.427a4.67 4.67 0 0 1-1.32.17h-.19v.935h-.772zm0-1.631v-3.78h-.209c-.453 0-.842.056-1.17.169-.327.113-.574.267-.74.462s-.288.397-.361.602c-.073.206-.11.425-.11.656 0 .233.037.451.11.658.073.205.193.406.36.601s.414.35.741.462c.327.113.717.17 1.17.17h.21zm.773-3.78v3.78h.209c.452 0 .842-.057 1.17-.17.327-.112.574-.267.74-.462s.288-.396.361-.602c.073-.206.11-.424.11-.657 0-.231-.037-.45-.11-.656-.073-.205-.193-.406-.36-.602s-.414-.35-.741-.462c-.328-.113-.718-.17-1.17-.17h-.21zm10.627 4.546c-.7.656-1.558.984-2.575.984s-1.875-.328-2.574-.984c-.7-.657-1.05-1.473-1.05-2.448 0-.981.352-1.799 1.055-2.45.703-.654 1.56-.981 2.57-.981 1.008 0 1.865.327 2.569.98.703.652 1.054 1.47 1.054 2.451 0 .975-.35 1.791-1.05 2.448zm-.57-4.387c-.55-.53-1.218-.796-2.005-.796-.787 0-1.455.266-2.005.796a2.593 2.593 0 0 0-.825 1.94c0 .762.275 1.408.825 1.939.55.531 1.218.796 2.005.796.787 0 1.456-.265 2.005-.796.55-.53.826-1.177.826-1.94 0-.761-.276-1.409-.826-1.94zm3.039-1.383h1.264c.794 0 1.378.156 1.754.468.425.344.638.82.638 1.423 0 .516-.183.956-.55 1.317-.364.361-.916.542-1.654.542h-.68v2.885h-.772v-6.635zm.773.696v2.358h.638c.459 0 .819-.106 1.08-.319.261-.212.391-.507.391-.884 0-.77-.511-1.155-1.535-1.155h-.574zm4.449 5.939h-.794l1.16-7.002 2.673 5.6 2.726-5.61 1.086 7.012h-.794l-.658-4.615-2.37 4.893-2.34-4.893-.689 4.615zm12.909 0l-.815-1.87h-2.966l-.835 1.87h-.856l3.206-6.953 3.123 6.953h-.857zm-3.478-2.567h2.36l-1.17-2.655-1.19 2.655zm5.316 2.567v-6.635h.773v5.938h3.53v-5.938h.772v5.938h.794v2.09h-.73v-1.393h-5.139zm11.76 0v-5.063l-4.846 5.362v-6.934h.773v5.083l4.845-5.361v6.913h-.772zm7.415 0v-5.063l-4.846 5.362v-6.934h.773v5.083l4.845-5.361v6.913h-.772zM65.53 19.666l-.814-1.87h-2.967l-.835 1.87h-.857l3.207-6.952 3.122 6.952h-.856zM62.052 17.1h2.36l-1.17-2.656-1.19 2.656zm5.316 2.566v-6.634h3.175v.696h-2.402v5.938h-.773zm7.833-6.634v.696H72.36v1.97h2.757v.696H72.36v2.576h2.841v.696h-3.614v-6.634h3.614zm2.193 0v2.695h3.572v-2.695h.772v6.634h-.772v-3.242h-3.572v3.242h-.773v-6.634h.773zm9.546.696h-1.692v5.938h-.773v-5.938h-1.692v-.696h4.157v.696zm6.005-.149v.915a3.21 3.21 0 0 0-.908-.617 2.995 2.995 0 0 0-1.2-.258c-.802 0-1.469.266-2 .8-.534.534-.8 1.19-.8 1.965 0 .835.29 1.495.872 1.979.581.484 1.227.727 1.937.727a2.9 2.9 0 0 0 1.296-.31c.292-.138.56-.324.804-.556v.915a3.65 3.65 0 0 1-2.1.646c-1.03 0-1.889-.328-2.574-.984-.686-.657-1.029-1.465-1.029-2.427 0-.988.346-1.81 1.04-2.467.692-.656 1.56-.984 2.605-.984.765 0 1.452.218 2.057.656zm4.825.149h-1.692v5.938h-.773v-5.938h-1.692v-.696h4.157v.696zm1.045-.696h1.253c.696 0 1.228.14 1.597.417.418.306.627.763.627 1.373 0 .57-.23 1.005-.69 1.303.446.106.78.32.999.642.219.322.328.665.328 1.03 0 .297-.067.573-.203.825s-.305.454-.507.607c-.39.291-.947.437-1.671.437h-1.733v-6.634zm.772.696v2.218h.585a1.816 1.816 0 0 0 .652-.094 1.22 1.22 0 0 0 .356-.175.837.837 0 0 0 .256-.328c.07-.145.104-.315.104-.507 0-.206-.042-.383-.125-.532a.99.99 0 0 0-.282-.333 1.2 1.2 0 0 0-.376-.17 2.086 2.086 0 0 0-.334-.069 2.797 2.797 0 0 0-.23-.01h-.606zm0 2.875v2.367h.888c.564 0 .971-.093 1.221-.278.307-.213.46-.518.46-.915 0-.445-.198-.77-.595-.976-.25-.132-.644-.198-1.18-.198h-.794zm10.585 2.198c-.7.656-1.558.984-2.574.984s-1.875-.328-2.574-.984c-.7-.657-1.05-1.472-1.05-2.447 0-.981.351-1.799 1.055-2.452.703-.653 1.56-.98 2.569-.98s1.865.327 2.57.98c.702.653 1.054 1.47 1.054 2.452 0 .975-.35 1.79-1.05 2.447zm-.57-4.387c-.55-.53-1.218-.795-2.004-.795-.787 0-1.455.265-2.006.795a2.594 2.594 0 0 0-.824 1.94c0 .762.274 1.41.824 1.94.55.53 1.219.796 2.006.796.786 0 1.455-.266 2.005-.796s.825-1.178.825-1.94c0-.763-.275-1.409-.825-1.94zm-48.73 17.188v-6.635h.773v5.939h3.53v-5.939h.773v5.939h.793v2.089h-.73v-1.393h-5.14zm11.76 0V26.54l-4.847 5.36v-6.934h.773v5.083l4.846-5.36v6.912h-.772zm5.578 0v-.934h-.19c-.493 0-.934-.057-1.32-.17-.386-.113-.695-.255-.924-.428-.23-.172-.42-.378-.57-.616s-.25-.469-.302-.692a2.937 2.937 0 0 1-.079-.681c0-.232.026-.46.079-.68.051-.224.153-.454.302-.692.15-.24.34-.445.57-.618.23-.171.538-.314.923-.427a4.742 4.742 0 0 1 1.322-.17h.188V24.7h.773v.796h.188c.494 0 .935.056 1.321.169.386.113.695.256.924.427.23.173.42.378.57.618.149.238.25.468.302.691.053.222.078.45.078.68 0 .233-.025.46-.078.682-.051.223-.153.454-.302.692s-.34.444-.57.616c-.23.173-.538.315-.924.428-.386.113-.827.17-1.32.17h-.19v.934h-.772zm0-1.63v-3.78H78c-.453 0-.843.056-1.17.168-.327.113-.574.268-.74.463s-.288.396-.361.601c-.074.207-.11.425-.11.657 0 .232.036.45.11.657.073.205.193.406.36.602s.414.35.741.461c.327.114.717.17 1.17.17h.21zm.772-3.78v3.78h.209c.452 0 .842-.057 1.17-.17.327-.113.574-.267.74-.462s.288-.397.361-.602c.073-.206.11-.425.11-.657 0-.232-.037-.45-.11-.656-.073-.206-.193-.407-.36-.602s-.414-.35-.741-.463a3.63 3.63 0 0 0-1.17-.169h-.21zm4.804-1.225h1.264c.794 0 1.378.157 1.754.468.425.345.638.82.638 1.423 0 .517-.183.956-.55 1.317-.364.362-.916.542-1.654.542h-.68v2.885h-.772v-6.635zm.773.697v2.357h.637c.46 0 .82-.105 1.08-.318.262-.212.392-.507.392-.885 0-.77-.512-1.154-1.535-1.154h-.574zm9.811 5.073c-.7.656-1.557.984-2.574.984s-1.875-.328-2.574-.984c-.7-.656-1.05-1.473-1.05-2.447 0-.982.352-1.8 1.055-2.451.703-.654 1.56-.98 2.57-.98 1.008 0 1.864.326 2.568.98.704.652 1.055 1.47 1.055 2.45 0 .975-.35 1.792-1.05 2.448zm-.569-4.387c-.55-.53-1.219-.796-2.005-.796-.787 0-1.455.266-2.006.796a2.593 2.593 0 0 0-.824 1.94c0 .762.274 1.409.824 1.94.551.53 1.219.795 2.006.795.786 0 1.455-.265 2.005-.796.55-.53.825-1.177.825-1.94 0-.761-.275-1.408-.825-1.939zm3.04-1.383h1.253c.696 0 1.228.14 1.598.418.418.306.627.763.627 1.373 0 .57-.23 1.004-.69 1.303.445.107.778.32.998.642.219.321.328.665.328 1.03 0 .298-.067.573-.203.825s-.305.454-.507.607c-.39.292-.947.437-1.67.437H96.84v-6.635zm.772.697v2.219h.585c.105 0 .206-.005.303-.016.098-.01.214-.036.35-.08s.255-.1.355-.173a.845.845 0 0 0 .256-.328c.07-.147.105-.316.105-.508a1.08 1.08 0 0 0-.125-.532c-.084-.15-.178-.26-.283-.333s-.23-.13-.376-.17-.257-.063-.334-.069a2.598 2.598 0 0 0-.23-.01h-.606zm0 2.875v2.367h.888c.565 0 .972-.093 1.222-.278.306-.212.46-.518.46-.915 0-.445-.198-.77-.596-.975-.25-.133-.643-.2-1.18-.2h-.794zm10.585 2.198c-.7.656-1.557.984-2.574.984s-1.875-.328-2.574-.984c-.7-.656-1.05-1.473-1.05-2.447 0-.982.352-1.8 1.055-2.451.703-.654 1.56-.98 2.57-.98 1.008 0 1.864.326 2.569.98.703.652 1.054 1.47 1.054 2.45 0 .975-.35 1.792-1.05 2.448zm-.569-4.387c-.55-.53-1.219-.796-2.005-.796-.787 0-1.455.266-2.006.796a2.593 2.593 0 0 0-.824 1.94c0 .762.275 1.409.824 1.94.551.53 1.22.795 2.006.795.786 0 1.455-.265 2.005-.796.55-.53.825-1.177.825-1.94 0-.761-.275-1.408-.825-1.939zm7.885 5.252V26.54l-4.846 5.361v-6.934h.773v5.083l4.845-5.36v6.912h-.772zm-3.655-8.136l.731-.229c.041.126.105.23.192.313s.185.14.293.17c.108.03.19.05.245.059s.109.016.158.016c.048 0 .1-.006.156-.016s.138-.03.245-.06c.108-.029.206-.086.293-.169s.151-.187.193-.313l.73.23a1.179 1.179 0 0 1-.12.228c-.051.08-.137.183-.255.308a1.26 1.26 0 0 1-.501.308c-.216.08-.463.12-.741.12-.28 0-.527-.04-.742-.12a1.277 1.277 0 0 1-.501-.308 2.411 2.411 0 0 1-.256-.308 1.18 1.18 0 0 1-.12-.229zM34.963 12.553l-7.682 10.285L35 32.848v.001H15.435l17.69-22.838L25.455 0 0 32.765l7.182 10.7v.021H43.18v-.025l.02.025 7.194-10.72z"/></symbol><symbol viewBox="0 0 76.036 56.127" id="mail" xmlns="http://www.w3.org/2000/svg"><path d="M75.966 55.085c.042-.145.07-.298.07-.459V1.499c0-.162-.028-.316-.07-.462-.007-.02-.01-.04-.017-.06a1.543 1.543 0 0 0-.244-.46c-.007-.009-.008-.02-.015-.029-.004-.005-.01-.007-.014-.012a1.35 1.35 0 0 0-.39-.323l-.031-.02a1.18 1.18 0 0 0-.451-.123c-.016-.001-.031-.005-.047-.005C74.742.004 74.73 0 74.714 0H1.324c-.015 0-.03.004-.044.005L1.238.01A1.195 1.195 0 0 0 .78.135C.77.139.765.146.756.15A1.33 1.33 0 0 0 .36.477C.356.482.35.483.347.488.34.496.339.507.332.516a1.55 1.55 0 0 0-.245.461c-.007.02-.01.04-.016.061-.043.146-.071.3-.071.462v53.128c0 .164.03.32.072.468.007.02.01.039.016.059.058.172.142.327.247.462.006.008.008.018.014.026l.019.018c.043.051.09.096.14.14.022.019.042.042.064.06.059.046.121.083.186.117.016.008.03.021.046.028.16.077.335.121.52.121h73.388c.184 0 .36-.043.52-.121.024-.012.047-.03.071-.044.055-.031.11-.063.16-.102.026-.021.05-.048.076-.071a1.28 1.28 0 0 0 .127-.129l.022-.022c.008-.009.01-.021.016-.03a1.55 1.55 0 0 0 .243-.458c.009-.022.013-.043.02-.065zM2.647 4.901l22.269 23.061L2.647 51.207V4.901zm45.642 21.931c-.092.068-.189.125-.266.221-.029.036-.038.083-.064.121l-9.94 10.294L4.733 2.999h66.569L48.289 26.832zm-21.412 3.161l10.249 10.613c.253.262.572.393.892.393.32 0 .64-.131.892-.393l10.122-10.481 22.265 23.002H4.714l22.163-23.134zm24.117-1.9L73.39 4.901v46.33L50.994 28.093z"/></symbol><symbol viewBox="0 0 30 30" id="main-circle" xmlns="http://www.w3.org/2000/svg"><defs><path id="ma" d="M0 0h30v30H0z"/></defs><clipPath id="mb"><use xlink:href="#ma" overflow="visible"/></clipPath><path d="M15 2c7.168 0 13 5.832 13 13s-5.832 13-13 13S2 22.168 2 15 7.832 2 15 2m0-2C6.716 0 0 6.716 0 15s6.716 15 15 15 15-6.716 15-15S23.284 0 15 0" clip-path="url(#mb)"/></symbol><symbol viewBox="0 0 27 27" id="main-square" xmlns="http://www.w3.org/2000/svg"><path d="M2 2h23v23H2V2zM0 27h27V0H0v27z"/></symbol><symbol viewBox="0 0 35.654 27.855" id="main-triangle" xmlns="http://www.w3.org/2000/svg"><path d="M35.654 27.855H0L17.827 0l17.827 27.855zm-32-2H32L17.827 3.71 3.654 25.855z"/></symbol><symbol id="mobile-phone" xml:space="preserve" viewBox="0 0 62.7 87.4" xmlns="http://www.w3.org/2000/svg"><path d="M52 1H10.7C5.4 1 1 5.3 1 10.6v66.2c0 5.3 4.3 9.6 9.7 9.6H52c5.3 0 9.7-4.3 9.7-9.6V10.6C61.7 5.3 57.4 1 52 1zm6.7 75.8c0 3.7-3 6.6-6.7 6.6H10.7c-3.7 0-6.7-3-6.7-6.6V10.6C4 6.9 7 4 10.7 4H52c3.7 0 6.7 3 6.7 6.6v66.2z"/><path d="M43.6 10.5H18.9c-.8 0-1.5.7-1.5 1.5s.7 1.5 1.5 1.5h24.7c.8 0 1.5-.7 1.5-1.5s-.7-1.5-1.5-1.5zM31.3 67.8c-2.8 0-5 2.3-5 5 0 1.3.5 2.6 1.5 3.5.9.9 2.2 1.4 3.5 1.4 2.8 0 5-2.3 5-5s-2.2-4.9-5-4.9zm.1 7c-.5 0-1-.2-1.4-.6s-.6-.9-.6-1.4c0-1.1.9-2 2-2s2 .9 2 2-.9 2-2 2z"/></symbol><symbol viewBox="0 0 21 21" id="phone" xmlns="http://www.w3.org/2000/svg"><path d="M16 11a4.994 4.994 0 0 0-4.541 2.906 9.984 9.984 0 0 1-4.365-4.365A4.996 4.996 0 0 0 10 5c0-2.757-2.243-5-5-5S0 2.243 0 5c0 8.822 7.178 16 16 16 2.757 0 5-2.243 5-5s-2.243-5-5-5zm0 8C8.28 19 2 12.72 2 5c0-1.654 1.346-3 3-3s3 1.346 3 3a2.991 2.991 0 0 1-2.45 2.946l-1.182.217.428 1.124a11.987 11.987 0 0 0 6.918 6.918l1.124.428.216-1.184A2.991 2.991 0 0 1 16 13c1.654 0 3 1.346 3 3s-1.346 3-3 3z"/></symbol><symbol viewBox="0 0 51 38" id="tools-arrows" xmlns="http://www.w3.org/2000/svg"><path d="M40.688 1.811l6.686 6.778H9.988c-.587 0-1.063.482-1.063 1.077s.476 1.077 1.063 1.077h37.386l-6.686 6.778a1.087 1.087 0 0 0-.053 1.522 1.052 1.052 0 0 0 1.554 0l8.5-8.616a1.087 1.087 0 0 0 0-1.522L42.19.289a1.052 1.052 0 0 0-1.501.054 1.088 1.088 0 0 0 0 1.468zM8.81 18.957l-8.5 8.616a1.087 1.087 0 0 0 0 1.522l8.5 8.616c.43.405 1.102.381 1.502-.054.38-.413.38-1.055 0-1.468L3.626 29.41h37.386a1.07 1.07 0 0 0 1.063-1.077 1.07 1.07 0 0 0-1.063-1.077H3.626l6.686-6.778c.4-.435.377-1.117-.053-1.522a1.052 1.052 0 0 0-1.448 0z"/></symbol><symbol viewBox="0 0 85.127 91.324" id="tools-hat" xmlns="http://www.w3.org/2000/svg"><defs><path id="sa" d="M0 0h85.127v91.324H0z"/></defs><clipPath id="sb"><use xlink:href="#sa" overflow="visible"/></clipPath><path d="M84.46 27.628L43.397.252a1.501 1.501 0 0 0-1.665 0L.668 27.628a1.503 1.503 0 0 0 0 2.496l6.237 4.158v21.913c0 .511.26.987.69 1.263l34.4 22.052a1.49 1.49 0 0 0 1.654-.023l17.946-12.244v8.538l-6.684 13.372a1.506 1.506 0 0 0 .063 1.46c.275.441.758.711 1.278.711h13.687a1.5 1.5 0 0 0 1.342-2.17L64.594 75.78V65.196l11.377-7.762a1.5 1.5 0 0 0 .655-1.239V35.346l7.833-5.222a1.5 1.5 0 0 0 0-2.496M58.68 88.324l4.416-8.834 4.418 8.834h-8.835zM42.778 76.45L9.905 55.375V36.282l31.827 21.22a1.498 1.498 0 0 0 1.665 0l18.199-12.135v18.244l-18.818 12.84zm30.848-21.047l-9.03 6.162V43.367l9.03-6.02v18.056zm.98-22.315a1.477 1.477 0 0 0-.574.383l-10.937 7.291-19.699-13.134a1.5 1.5 0 0 0-1.665 2.496l18.66 12.44L42.563 54.45 4.204 28.876l38.36-25.573 38.36 25.573-6.319 4.212z" clip-path="url(#sb)"/></symbol><symbol viewBox="0 0 86.178 86.784" id="tools-ok" xmlns="http://www.w3.org/2000/svg"><defs><path id="ta" d="M0 0h86.178v86.784H0z"/></defs><clipPath id="tb"><use xlink:href="#ta" overflow="visible"/></clipPath><path d="M82.382 43.408c2.29-1.474 3.795-3.915 3.795-6.676 0-4.478-3.97-8.12-8.852-8.12H53.74c1.114-2.09 2.244-5.515 1.985-10.615C55.218 7.542 48.874 2.118 45.205.561c-2.164-.918-4.519-.7-6.298.583-1.786 1.288-3.802 4.246-3.263 11.026.558 7.046-8.41 14.69-12.78 17.973v-2.682a1.5 1.5 0 0 0-1.5-1.5H1.5a1.5 1.5 0 0 0-1.5 1.5v54.182a1.5 1.5 0 0 0 1.5 1.5h19.863a1.5 1.5 0 0 0 1.5-1.5v-2.737c5.654 2.033 21.553 7.511 29.41 7.768l15.777.11c4.875 0 8.84-3.805 8.84-8.48 0-2.154-.843-4.116-2.222-5.615 4.208-.655 7.433-4.148 7.433-8.36 0-2.242-.92-4.279-2.41-5.797 3.735-.997 6.487-4.278 6.487-8.172 0-2.876-1.505-5.418-3.796-6.952M3 80.142V28.96h16.863v4.02c-.002.04 0 .08 0 .12v43.634c0 .041-.003.082 0 .123v3.286H3zm74.325-24.294h-7.689l-.01.001H68.05a1.5 1.5 0 1 0 0 3h5.195c3.228 0 5.855 2.46 5.855 5.48 0 3.021-2.627 5.48-5.855 5.48H68.07l-.02-.002h-5.514a1.5 1.5 0 0 0 0 3h5.504l.01.001h.02c3.211.011 5.82 2.47 5.82 5.494 0 3.022-2.62 5.481-5.83 5.481l-15.728-.109c-7.822-.257-25.169-6.397-29.469-7.96V33.85c3.25-2.235 16.556-12.025 15.771-21.917-.334-4.205.386-7.172 2.027-8.355 1.365-.983 2.926-.442 3.373-.254 3.023 1.284 8.26 5.85 8.694 14.823.396 7.798-2.762 10.715-2.883 10.823a1.5 1.5 0 1 0 .971 2.643h26.508c3.227 0 5.852 2.297 5.852 5.12 0 2.837-2.625 5.146-5.852 5.146h-6.413a1.5 1.5 0 1 0 0 3h6.413c3.227 0 5.852 2.458 5.852 5.481.001 3.025-2.624 5.488-5.85 5.488" clip-path="url(#tb)"/></symbol><symbol id="tools-settings" xml:space="preserve" viewBox="0 0 99.118 88.087" xmlns="http://www.w3.org/2000/svg"><path d="M51.317 47.224a1.501 1.501 0 0 0-2.019.652L39.249 67.517a1.5 1.5 0 0 0 2.67 1.368l10.048-19.641a1.498 1.498 0 0 0-.65-2.02zm10.515-.75a1.5 1.5 0 1 0-2.121 2.121l9.583 9.58-9.583 9.58a1.5 1.5 0 1 0 2.122 2.121l10.645-10.641a1.5 1.5 0 0 0 0-2.122L61.832 46.474zm-30.297.001a1.5 1.5 0 0 0-2.121 0l-10.643 10.64a1.5 1.5 0 0 0 0 2.122l10.643 10.64c.293.293.677.439 1.061.439s.768-.146 1.061-.439a1.5 1.5 0 0 0 0-2.121l-9.581-9.58 9.581-9.58a1.5 1.5 0 0 0-.001-2.121z"/><path d="M88.498 9.664H1.75a1.5 1.5 0 0 0-1.5 1.5v75.173a1.5 1.5 0 0 0 1.5 1.5h86.748a1.5 1.5 0 0 0 1.5-1.5V11.164a1.5 1.5 0 0 0-1.5-1.5zm-1.5 3v18.862H3.25V12.664h83.748zM3.25 84.837V34.526h83.748v50.311H3.25z"/><path d="M11.186 23.101h6.89a1.5 1.5 0 1 0 0-3h-6.89a1.5 1.5 0 1 0 0 3zm14.764 0h6.89a1.5 1.5 0 1 0 0-3h-6.89a1.5 1.5 0 1 0 0 3zM95.624.25h3v80h-3z"/><path d="M9.771 3.25l-1-3h89l1 3z"/></symbol></svg>