<svg xmlns="http://www.w3.org/2000/svg" width="175" height="126.724"><path d="M111.63 125.225c-2.142 0-4.151-.83-5.657-2.336s-2.335-3.515-2.335-5.657.83-4.15 2.335-5.656l40.214-40.214H9.5c-4.411 0-8-3.589-8-8s3.589-8 8-8h136.687L105.973 15.15c-1.506-1.506-2.335-3.515-2.335-5.657s.83-4.15 2.335-5.657S109.488 1.5 111.63 1.5s4.15.83 5.657 2.335l53.777 53.778.1.111c1.497 1.49 2.336 3.502 2.336 5.638s-.839 4.148-2.363 5.664a1.12 1.12 0 0 1-.11.123l-53.74 53.74a7.944 7.944 0 0 1-5.657 2.336z"/><path d="M111.63 3a6.48 6.48 0 0 1 4.596 1.896l53.74 53.74c.04.04.074.084.113.125 1.185 1.18 1.921 2.808 1.921 4.601s-.736 3.422-1.92 4.601c-.04.041-.074.085-.114.125l-53.74 53.74c-1.264 1.264-2.93 1.896-4.596 1.896s-3.332-.632-4.596-1.896c-2.528-2.527-2.528-6.664 0-9.192l42.774-42.774H9.5c-3.575 0-6.5-2.925-6.5-6.5s2.925-6.5 6.5-6.5h140.308l-42.774-42.774c-2.528-2.528-2.528-6.664 0-9.192A6.48 6.48 0 0 1 111.63 3m0-3a9.434 9.434 0 0 0-6.718 2.775 9.434 9.434 0 0 0-2.774 6.717c0 2.543.985 4.928 2.774 6.718l37.653 37.652H9.5c-5.238 0-9.5 4.262-9.5 9.5s4.262 9.5 9.5 9.5h133.065l-37.653 37.653c-1.789 1.789-2.774 4.175-2.774 6.717s.985 4.929 2.774 6.718c1.79 1.789 4.175 2.774 6.718 2.774s4.928-.985 6.717-2.774l53.74-53.74c.063-.062.121-.126.179-.191A9.43 9.43 0 0 0 175 63.362a9.43 9.43 0 0 0-2.735-6.657 4.137 4.137 0 0 0-.177-.19l-53.74-53.74A9.434 9.434 0 0 0 111.63 0z"/></svg>