<svg xmlns="http://www.w3.org/2000/svg" width="54" height="50.791"><path d="M53.933 9.252L50.642.91a1.078 1.078 0 0 0-1.67-.723l-8.856 3.27a1.085 1.085 0 0 0 .723 2.033l6.612-2.46-11.04 24.286-5.635-9.593a1.085 1.085 0 0 0-1.917.087l-8.11 17.304-6.525-12.5a1.034 1.034 0 0 0-.99-.587 1.087 1.087 0 0 0-.934.586L2.172 44.758V1.272a1.085 1.085 0 1 0-2.17 0v48.542a.842.842 0 0 0 0 .123v.203l.05.102.05.086.066.087.065.08.08.072.08.066.108.065.065.035.166.058h48.724a1.085 1.085 0 1 0 0-2.17H2.772l10.555-23.056 6.511 12.502a1.086 1.086 0 0 0 1.946-.045l8.168-17.42 5.65 9.615a1.085 1.085 0 0 0 1.924-.102L49.485 3.884l2.43 6.163a1.086 1.086 0 0 0 2.018-.795"/><path fill="none" d="M0 0h54v50.791H0z"/></svg>