<svg xmlns="http://www.w3.org/2000/svg" width="55" height="51.382">
    <path d="M50.1 0H4.9C2.213 0 .064 1.76 0 4.038V37.14c0 2.265 2.171 4.11 4.9 4.11h21.153v7.96H13.388a1.085 1.085 0 1 0 0 2.172h28.224a1.086 1.086 0 0 0 0-2.171H28.224v-7.96H50.1c2.728 0 4.899-1.846 4.899-4.111V4.11C55 1.846 52.829 0 50.1 0m2.729 37.14c0 1.048-1.252 1.94-2.728 1.94H4.899c-1.447 0-2.728-.892-2.728-1.94V4.067c0-1.042 1.252-1.896 2.728-1.896h45.202c1.447 0 2.728.89 2.728 1.94V37.14z"/>
    <path d="M31.313 14.206a1.086 1.086 0 0 0-1.447.47L24.02 26.053a1.086 1.086 0 0 0 1.932.991l5.833-11.398a1.085 1.085 0 0 0-.47-1.44m6.939-.398a1.085 1.085 0 0 0-1.534 1.534l5.412 5.406-5.412 5.406a1.085 1.085 0 1 0 1.48 1.589c.018-.019.037-.036.054-.055l6.18-6.173a1.085 1.085 0 0 0 0-1.534l-6.18-6.173zm-19.149 0a1.085 1.085 0 0 0-1.534 0l-6.18 6.18a1.085 1.085 0 0 0 0 1.534l6.18 6.18a1.085 1.085 0 0 0 1.534-1.534l-5.413-5.405 5.413-5.42a1.085 1.085 0 0 0 0-1.535"/>
</svg>