<svg xmlns="http://www.w3.org/2000/svg" xmlns:xlink="http://www.w3.org/1999/xlink" width="76" height="71"><defs><path id="a" d="M0 0h76v71H0z"/></defs><clipPath id="b"><use xlink:href="#a" overflow="visible"/></clipPath><path d="M69.23 0H6.77C3.06 0 .09 2.43 0 5.58v45.74C0 54.45 3 57 6.77 57H36v11H18.5a1.5 1.5 0 1 0 0 3h39a1.5 1.5 0 0 0 0-3H39V57h30.23C73 57 76 54.45 76 51.32V5.68C76 2.549 73 0 69.23 0M73 51.32c0 1.449-1.73 2.68-3.77 2.68H6.77C4.77 54 3 52.769 3 51.32V5.62C3 4.18 4.73 3 6.77 3h62.46c2 0 3.77 1.23 3.77 2.68v45.64z" clip-path="url(#b)"/><path d="M43.27 19.63a1.5 1.5 0 0 0-2 .65L33.189 36a1.501 1.501 0 0 0 2.67 1.37l8.06-15.75a1.5 1.5 0 0 0-.649-1.99m9.59-.55a1.5 1.5 0 0 0-2.12 2.12l7.479 7.47-7.479 7.47a1.499 1.499 0 1 0 2.045 2.195c.025-.025.051-.049.075-.075l8.54-8.53a1.5 1.5 0 0 0 0-2.12l-8.54-8.53zm-26.46 0a1.5 1.5 0 0 0-2.12 0l-8.54 8.54a1.5 1.5 0 0 0 0 2.12l8.54 8.54a1.5 1.5 0 0 0 2.12-2.12l-7.48-7.47 7.48-7.49a1.5 1.5 0 0 0 0-2.12" clip-path="url(#b)"/></svg>