<svg xmlns="http://www.w3.org/2000/svg" width="65" height="56.338"><path d="M60.117 0H15.322c-2.675 0-4.818 1.88-4.88 4.31v9.395a1.1 1.1 0 1 0 2.2 0V4.338c.03-1.18 1.233-2.138 2.68-2.138h44.795c1.48 0 2.683.979 2.683 2.182v35.889c0 1.204-1.204 2.184-2.683 2.184H15.322c-1.477 0-2.68-.98-2.68-2.184v-5.138a1.1 1.1 0 1 0-2.2 0v5.138c0 2.417 2.19 4.384 4.88 4.384h21.13v9.484H22.49a1.1 1.1 0 1 0 0 2.2h29.998a1.1 1.1 0 0 0 0-2.2H38.652v-9.485h21.465c2.692 0 4.883-1.967 4.883-4.384V4.382C65 1.966 62.81 0 60.117 0"/><path d="M30.395 17.946h23.573a1.1 1.1 0 1 0 0-2.2H30.395a1.1 1.1 0 1 0 0 2.2m0 6.964h23.573a1.1 1.1 0 1 0 0-2.2H30.395a1.1 1.1 0 1 0 0 2.2m0 7.35h23.573a1.1 1.1 0 0 0 0-2.2H30.395a1.1 1.1 0 1 0 0 2.2m-19.077-5.026c.284 0 .565-.11.778-.322l15.89-15.89a1.1 1.1 0 1 0-1.555-1.556L11.198 24.699l-9.46-6.735a1.1 1.1 0 0 0-1.275 1.792L10.68 27.03c.192.137.415.204.637.204"/></svg>