<svg xmlns="http://www.w3.org/2000/svg" xmlns:xlink="http://www.w3.org/1999/xlink" width="86.27" height="66.107"><defs><path id="a" d="M0 0h86.27v66.107H0z"/></defs><clipPath id="b"><use xlink:href="#a" overflow="visible"/></clipPath><path d="M84.729 53.104H68.92v-41c0-6.627-5.373-12-12-12h-43.5c-.23 0-.46-.06-.7-.08a12.272 12.272 0 0 0-9.13 3.26A11.196 11.196 0 0 0 0 11.505a1.5 1.5 0 0 0 1.5 1.5h19.42v40.81a12.13 12.13 0 0 0 11.19 12.29h42.159c6.489.14 11.861-5.007 12-11.495v-.005a1.5 1.5 0 0 0-1.499-1.501h-.041M3.14 10.005a8.303 8.303 0 0 1 2.51-4.53 9.166 9.166 0 0 1 5.42-2.37c.116.014.234.014.35 0h1.9a9.051 9.051 0 0 1 7.33 6.9H3.14zm29.15 53.099a9.13 9.13 0 0 1-8.37-9.29v-41.52a12.451 12.451 0 0 0-4-9.19h37a9 9 0 0 1 9 9v41H43.34a1.5 1.5 0 0 0-1.5 1.5 8.23 8.23 0 0 1-2.65 6 9.256 9.256 0 0 1-6.9 2.5m42 0H40.92l.31-.28a11.243 11.243 0 0 0 3.51-6.72h38.35a8.86 8.86 0 0 1-8.821 7h.021z" clip-path="url(#b)"/><path d="M31.42 22.104h27a1.5 1.5 0 1 0 0-3h-27a1.5 1.5 0 1 0 0 3m0 9h27a1.5 1.5 0 1 0 0-3h-27a1.5 1.5 0 1 0 0 3m15.5 7.5a1.5 1.5 0 0 0-1.5-1.5h-14a1.5 1.5 0 1 0 0 3h14a1.5 1.5 0 0 0 1.5-1.5" clip-path="url(#b)"/></svg>