<svg version="1.1" id="Layer_1" xmlns="http://www.w3.org/2000/svg" xmlns:xlink="http://www.w3.org/1999/xlink" x="0" y="0" width="72.537" height="91" xml:space="preserve"><style>.st0{clip-path:url(#SVGID_2_)}</style><defs><path id="SVGID_1_" d="M0 0h72.537v91H0z"/></defs><clipPath id="SVGID_2_"><use xlink:href="#SVGID_1_" overflow="visible"/></clipPath><path class="st0" d="M56.357 33.86a4.91 4.91 0 0 0-1.82.35v-.47a5.38 5.38 0 0 0-5.37-5.37h-.25a5.289 5.289 0 0 0-2.479.64 5.381 5.381 0 0 0-5.26-4.29 5.781 5.781 0 0 0-2.63.63v-7.76h9.5a1.5 1.5 0 0 0 1.5-1.5V1.5a1.5 1.5 0 0 0-1.5-1.5h-31.01a1.5 1.5 0 0 0-1.5 1.5v14.59a1.5 1.5 0 0 0 1.5 1.5h10.5v36.7l-8.79-7.2a9.24 9.24 0 0 0-12.43.52 1.5 1.5 0 0 0-.12 2l21.34 27.28V89.5a1.5 1.5 0 0 0 3 0V76.37a1.498 1.498 0 0 0-.32-.92L9.457 48.89a6.24 6.24 0 0 1 7.37.49l11.26 9.23a1.5 1.5 0 0 0 2.45-1.15V12.61a2.38 2.38 0 0 1 2.37-2.37h.25a2.38 2.38 0 0 1 2.38 2.37V44.5a1.5 1.5 0 0 0 3 0V30a2.53 2.53 0 0 1 2.63-2.27 2.38 2.38 0 0 1 2.37 2.37v14.4a1.5 1.5 0 0 0 3 0V33.75a2.38 2.38 0 0 1 2.37-2.37h.25a2.38 2.38 0 0 1 2.38 2.37V44.5a1.5 1.5 0 0 0 3 0V39a1.89 1.89 0 0 1 1.82-2.14 2.18 2.18 0 0 1 2.18 2.14v25.89a15.469 15.469 0 0 1-4.56 11 1.5 1.5 0 0 0-.44 1.11v11.5a1.5 1.5 0 0 0 3 0V77.57a18.438 18.438 0 0 0 5-12.68V39a5.18 5.18 0 0 0-5.18-5.14M33.167 7.23h-.25a5.38 5.38 0 0 0-5.38 5.38v2h-9V3h28v11.59h-8v-2a5.38 5.38 0 0 0-5.37-5.36M71.037 6h-15a1.5 1.5 0 1 0 0 3h15a1.5 1.5 0 1 0 0-3"/><path class="st0" d="M56.207 15a1.5 1.5 0 0 0-2.12 2.12l13.37 13.4a1.501 1.501 0 0 0 2.098-.319 1.503 1.503 0 0 0-.018-1.801L56.207 15zm-43.609 4.94a1.5 1.5 0 0 0-2.12 0l-10 10a1.5 1.5 0 1 0 2.12 2.12l10-10c.605-.564.675-1.475.111-2.081-.024-.027-.05-.053-.111-.04"/></svg>