<svg xmlns="http://www.w3.org/2000/svg" xmlns:xlink="http://www.w3.org/1999/xlink" width="88.65" height="76.837"><defs><path id="a" d="M0 0h88.65v76.837H0z"/></defs><clipPath id="b"><use xlink:href="#a" overflow="visible"/></clipPath><path d="M81.991 0H20.897c-3.648 0-6.571 2.565-6.655 5.878v12.814a1.5 1.5 0 1 0 3 0V5.916C17.283 4.308 18.923 3 20.897 3h61.094c2.018 0 3.659 1.335 3.659 2.977v48.946c0 1.643-1.642 2.979-3.659 2.979H20.897c-2.015 0-3.655-1.336-3.655-2.979v-7.007a1.5 1.5 0 1 0-3 0v7.007c0 3.297 2.985 5.979 6.655 5.979h28.818v12.935H30.674a1.5 1.5 0 1 0 0 3h40.914a1.5 1.5 0 0 0 0-3H52.715V60.901h29.276c3.672 0 6.659-2.682 6.659-5.979V5.977C88.65 2.681 85.663 0 81.991 0" clip-path="url(#b)"/><path d="M41.454 24.475h32.151a1.5 1.5 0 1 0 0-3H41.454a1.5 1.5 0 1 0 0 3m0 9.499h32.151a1.5 1.5 0 1 0 0-3H41.454a1.5 1.5 0 1 0 0 3m0 10.024h32.151a1.5 1.5 0 0 0 0-3H41.454a1.5 1.5 0 1 0 0 3m-26.018-6.855c.387 0 .771-.149 1.061-.439l21.672-21.673a1.5 1.5 0 1 0-2.121-2.121L15.273 33.686 2.37 24.5a1.5 1.5 0 1 0-1.739 2.444l13.937 9.921c.261.187.566.278.868.278" clip-path="url(#b)"/></svg>