<svg xmlns="http://www.w3.org/2000/svg" width="62.001" height="47.51"><path d="M60.893 38.165H49.532V8.699A8.625 8.625 0 0 0 40.907.075H9.645c-.166 0-.33-.043-.503-.057A8.82 8.82 0 0 0 2.58 2.36 8.046 8.046 0 0 0 0 8.268c0 .596.482 1.078 1.078 1.078h13.957v29.329a8.717 8.717 0 0 0 8.042 8.832h30.299A8.444 8.444 0 0 0 62 39.247v-.004a1.08 1.08 0 0 0-1.077-1.079h-.03M2.257 7.19A5.967 5.967 0 0 1 4.06 3.934a6.587 6.587 0 0 1 3.895-1.703c.083.01.168.01.251 0h1.366A6.505 6.505 0 0 1 14.84 7.19H2.257zm20.95 38.161a6.561 6.561 0 0 1-6.016-6.676V8.835a8.948 8.948 0 0 0-2.875-6.604h26.591a6.468 6.468 0 0 1 6.469 6.468v29.466H31.148c-.595 0-1.078.483-1.078 1.078-.01 1.639-.7 3.2-1.905 4.312a6.658 6.658 0 0 1-4.959 1.796m30.185 0H29.409l.222-.2a8.08 8.08 0 0 0 2.523-4.83h27.561a6.368 6.368 0 0 1-6.34 5.03h.016z"/><path d="M22.581 15.886h19.404a1.078 1.078 0 1 0 0-2.156H22.581a1.077 1.077 0 1 0 0 2.156m0 6.468h19.404a1.078 1.078 0 1 0 0-2.156H22.581a1.077 1.077 0 1 0 0 2.156m11.139 5.39c0-.595-.482-1.078-1.077-1.078H22.58a1.078 1.078 0 1 0 0 2.156h10.062c.595 0 1.078-.483 1.078-1.078"/><path fill="none" d="M0 0h62.001v47.509H0z"/></svg>