<svg xmlns="http://www.w3.org/2000/svg" width="57" height="51.949"><path d="M22.006 43.291H2.165V12.266h46.898v3.968a1.082 1.082 0 1 0 2.164 0V1.082C51.227.484 50.743 0 50.145 0H1.082C.484 0 0 .484 0 1.082v43.291c0 .598.484 1.083 1.082 1.083h20.924a1.082 1.082 0 1 0 0-2.165m27.057-33.19H2.165V2.165h46.898V10.1z"/><path d="M6.133 7.215H9.74a1.082 1.082 0 1 0 0-2.164H6.133a1.082 1.082 0 1 0 0 2.164m7.937 0h3.607a1.082 1.082 0 1 0 0-2.164H14.07a1.082 1.082 0 1 0 0 2.164m25.613 20.203a7.216 7.216 0 1 0 .002 14.432 7.216 7.216 0 0 0-.002-14.432m0 12.266a5.05 5.05 0 1 1 0-10.102 5.05 5.05 0 0 1 0 10.102"/><path d="M56.076 30.773l-4.127-.628a13.182 13.182 0 0 0-.78-1.883l2.483-3.37a1.083 1.083 0 0 0-.109-1.443l-3.434-3.434a1.083 1.083 0 0 0-1.443-.108l-3.355 2.475a13.24 13.24 0 0 0-1.869-.736l-.62-4.113a1.082 1.082 0 0 0-1.068-.938h-4.863c-.535.001-.99.394-1.068.924l-.62 4.127a13.19 13.19 0 0 0-1.898.786l-3.355-2.475a1.082 1.082 0 0 0-1.443.109L25.073 23.5a1.082 1.082 0 0 0-.109 1.443l2.482 3.37c-.295.59-.547 1.203-.75 1.832l-4.142.628a1.083 1.083 0 0 0-.909 1.068v4.863c.002.535.394.989.924 1.068l4.163.627c.21.635.468 1.252.772 1.847L25 43.638a1.083 1.083 0 0 0 .109 1.443l3.434 3.434c.382.4 1.005.446 1.443.108l3.406-2.51c.59.297 1.203.55 1.832.757l.635 4.185c.089.505.52.878 1.032.894h4.863c.535-.001.99-.394 1.068-.923l.635-4.185a13.22 13.22 0 0 0 1.832-.758l3.406 2.511c.438.338 1.06.292 1.443-.108l3.434-3.434c.4-.383.446-1.005.109-1.443l-2.504-3.391c.303-.586.56-1.194.772-1.819l4.163-.627c.515-.094.889-.544.887-1.068V31.84a1.082 1.082 0 0 0-.923-1.068m-1.241 5l-3.918.592a1.081 1.081 0 0 0-.88.786 11.049 11.049 0 0 1-1.104 2.648 1.08 1.08 0 0 0 .065 1.183l2.36 3.197-2.122 2.12-3.21-2.366a1.082 1.082 0 0 0-1.184-.065c-.827.476-1.712.842-2.634 1.09a1.084 1.084 0 0 0-.786.88l-.599 3.947h-3.001l-.6-3.947a1.084 1.084 0 0 0-.786-.88 10.984 10.984 0 0 1-2.633-1.09 1.082 1.082 0 0 0-1.183.065L29.409 46.3l-2.121-2.121 2.366-3.197c.255-.347.28-.81.065-1.183a11.048 11.048 0 0 1-1.104-2.648 1.082 1.082 0 0 0-.88-.786l-3.925-.592v-3.002l3.903-.591c.428-.064.777-.376.888-.794.248-.937.62-1.837 1.104-2.677a1.08 1.08 0 0 0-.065-1.183l-2.338-3.167 2.121-2.122 3.16 2.33c.348.255.812.28 1.184.066.844-.49 1.749-.867 2.691-1.119.418-.11.73-.46.794-.887l.57-3.867h3.001l.585 3.874c.063.428.375.776.793.888.943.251 1.848.628 2.692 1.118.371.217.837.192 1.183-.066l3.16-2.33 2.121 2.121-2.337 3.168c-.255.347-.28.811-.065 1.184.484.84.855 1.74 1.104 2.676.11.419.46.73.887.794l3.903.592-.014 2.994z"/></svg>