<svg xmlns="http://www.w3.org/2000/svg" width="53" height="66.49"><path d="M41.178 24.74c-.456 0-.907.087-1.33.256v-.344a3.93 3.93 0 0 0-3.923-3.923h-.183a3.865 3.865 0 0 0-1.811.467 3.932 3.932 0 0 0-3.844-3.134c-.668 0-1.327.157-1.922.46v-5.67h6.941c.606 0 1.096-.49 1.096-1.096V1.096C36.202.49 35.712 0 35.106 0H12.45c-.605 0-1.096.49-1.096 1.096v10.66c0 .605.49 1.096 1.096 1.096h7.671v26.815l-6.422-5.26a6.752 6.752 0 0 0-9.082.38 1.096 1.096 0 0 0-.088 1.46L20.12 56.18v9.214a1.096 1.096 0 0 0 2.192 0V55.8c0-.244-.083-.48-.233-.672L6.91 35.722a4.56 4.56 0 0 1 5.385.358l8.227 6.744a1.096 1.096 0 0 0 1.79-.84V9.214a1.74 1.74 0 0 1 1.732-1.732h.183c.958 0 1.735.774 1.739 1.732v23.3a1.096 1.096 0 0 0 2.192 0V21.92c.1-.975.942-1.703 1.921-1.659a1.739 1.739 0 0 1 1.732 1.732v10.521a1.096 1.096 0 0 0 2.192 0V24.66a1.74 1.74 0 0 1 1.732-1.732h.182a1.74 1.74 0 0 1 1.74 1.732v7.854a1.096 1.096 0 0 0 2.191 0v-4.018a1.38 1.38 0 0 1 1.33-1.564c.869 0 1.578.696 1.593 1.564v18.916a11.302 11.302 0 0 1-3.331 8.038 1.095 1.095 0 0 0-.322.81v8.403a1.096 1.096 0 0 0 2.192 0v-7.986a13.472 13.472 0 0 0 3.653-9.265V28.496a3.785 3.785 0 0 0-3.785-3.756M24.234 5.283h-.183a3.931 3.931 0 0 0-3.93 3.93v1.462h-6.576V2.192h20.458v8.468h-5.845V9.2a3.93 3.93 0 0 0-3.924-3.916m27.67-.9h-10.96a1.096 1.096 0 1 0 0 2.192h10.96a1.096 1.096 0 1 0 0-2.192"/><path d="M41.069 10.96a1.096 1.096 0 0 0-1.55 1.549l9.77 9.79a1.097 1.097 0 0 0 1.52-1.548l-9.74-9.791zM9.205 14.57a1.096 1.096 0 0 0-1.55 0L.35 21.875a1.096 1.096 0 1 0 1.549 1.549l7.307-7.307c.442-.412.493-1.077.081-1.52-.018-.02-.036-.039-.081-.029"/></svg>