<svg xmlns="http://www.w3.org/2000/svg" xmlns:xlink="http://www.w3.org/1999/xlink" width="79" height="72"><defs><path id="a" d="M0 0h79v72H0z"/></defs><clipPath id="b"><use xlink:href="#a" overflow="visible"/></clipPath><path d="M30.5 60H3V17h65v5.5a1.5 1.5 0 1 0 3 0v-21A1.5 1.5 0 0 0 69.5 0h-68A1.5 1.5 0 0 0 0 1.5v60A1.5 1.5 0 0 0 1.5 63h29a1.5 1.5 0 1 0 0-3M68 14H3V3h65v11z" clip-path="url(#b)"/><path d="M8.5 10h5a1.5 1.5 0 1 0 0-3h-5a1.5 1.5 0 1 0 0 3m11 0h5a1.5 1.5 0 1 0 0-3h-5a1.5 1.5 0 1 0 0 3M55 38c-5.522 0-10 4.478-10 10s4.478 10 10 10 10-4.478 10-10-4.478-10-10-10m0 17a7 7 0 1 1 0-14 7 7 0 0 1 0 14" clip-path="url(#b)"/><path d="M77.72 42.65L72 41.78a18.272 18.272 0 0 0-1.08-2.61l3.44-4.67a1.5 1.5 0 0 0-.15-2l-4.76-4.76a1.5 1.5 0 0 0-2-.15l-4.65 3.43A18.352 18.352 0 0 0 60.21 30l-.86-5.7a1.5 1.5 0 0 0-1.48-1.3h-6.74a1.5 1.5 0 0 0-1.48 1.28L48.79 30c-.903.294-1.783.659-2.63 1.09l-4.65-3.43a1.5 1.5 0 0 0-2 .15l-4.76 4.76a1.5 1.5 0 0 0-.15 2l3.44 4.67c-.41.819-.758 1.668-1.04 2.54l-5.74.87A1.5 1.5 0 0 0 30 44.13v6.74a1.5 1.5 0 0 0 1.28 1.48l5.77.87c.291.88.649 1.735 1.07 2.56l-3.47 4.7a1.5 1.5 0 0 0 .15 2l4.76 4.76a1.5 1.5 0 0 0 2 .15l4.72-3.48c.819.413 1.668.764 2.54 1.05l.88 5.8A1.5 1.5 0 0 0 51.13 72h6.74a1.5 1.5 0 0 0 1.48-1.28l.88-5.8a18.324 18.324 0 0 0 2.54-1.05l4.72 3.48a1.5 1.5 0 0 0 2-.15l4.76-4.76a1.5 1.5 0 0 0 .15-2l-3.47-4.7A18.13 18.13 0 0 0 72 53.22l5.77-.87A1.5 1.5 0 0 0 79 50.87v-6.74a1.5 1.5 0 0 0-1.28-1.48M76 49.58l-5.43.82a1.498 1.498 0 0 0-1.22 1.09 15.313 15.313 0 0 1-1.53 3.67 1.5 1.5 0 0 0 .09 1.64l3.27 4.43-2.94 2.94-4.45-3.28a1.5 1.5 0 0 0-1.64-.09 15.224 15.224 0 0 1-3.65 1.509c-.572.156-1 .634-1.09 1.221L56.58 69h-4.16l-.83-5.47a1.502 1.502 0 0 0-1.09-1.221 15.224 15.224 0 0 1-3.65-1.509 1.5 1.5 0 0 0-1.64.09l-4.45 3.28-2.94-2.94 3.28-4.43a1.502 1.502 0 0 0 .09-1.64 15.313 15.313 0 0 1-1.53-3.67 1.5 1.5 0 0 0-1.22-1.09L33 49.58v-4.16l5.41-.82a1.502 1.502 0 0 0 1.23-1.1 15.24 15.24 0 0 1 1.53-3.71 1.498 1.498 0 0 0-.09-1.64l-3.24-4.39 2.94-2.94 4.38 3.23a1.502 1.502 0 0 0 1.64.09 15.304 15.304 0 0 1 3.73-1.55 1.502 1.502 0 0 0 1.1-1.23l.79-5.36h4.16l.81 5.37a1.5 1.5 0 0 0 1.1 1.23c1.307.349 2.561.871 3.73 1.55a1.488 1.488 0 0 0 1.64-.091l4.38-3.229 2.94 2.939-3.24 4.391a1.502 1.502 0 0 0-.09 1.64 15.28 15.28 0 0 1 1.53 3.71c.153.58.637 1.012 1.23 1.1l5.41.82-.02 4.15z" clip-path="url(#b)"/></svg>