<svg xmlns="http://www.w3.org/2000/svg" xmlns:xlink="http://www.w3.org/1999/xlink" width="74.644" height="70.208"><defs><path id="a" d="M0 0h74.644v70.208H0z"/></defs><clipPath id="b"><use xlink:href="#a" overflow="visible"/></clipPath><path d="M74.552 12.788l-4.55-11.53a1.49 1.49 0 0 0-2.309-1l-12.241 4.52a1.5 1.5 0 0 0 1 2.81l9.14-3.4-15.26 33.57-7.79-13.26a1.5 1.5 0 0 0-2.65.12l-11.21 23.92-9.02-17.28a1.43 1.43 0 0 0-1.37-.81 1.503 1.503 0 0 0-1.29.81l-14 30.611V1.758a1.5 1.5 0 1 0-3 0v67.1a1.607 1.607 0 0 0 0 .17v.28l.07.141.07.119.09.12.09.11.11.1.11.091.15.09.09.049.23.08h67.351a1.5 1.5 0 1 0 0-3H3.832l14.59-31.87 9 17.281a1.5 1.5 0 0 0 2.69-.061l11.291-24.08 7.809 13.29a1.5 1.5 0 0 0 2.66-.14l16.531-36.26 3.359 8.52a1.5 1.5 0 0 0 2.79-1.1" clip-path="url(#b)"/></svg>