<svg version="1.1" id="Layer_1" xmlns="http://www.w3.org/2000/svg" x="0" y="0" width="55.659" height="91.335" xml:space="preserve"><style>.st0{stroke:#000;stroke-width:2;stroke-miterlimit:10}</style><path class="st0" d="M35.588 66.112l14.993-24.108c.049-.078.09-.16.122-.245a26.697 26.697 0 0 0 3.956-13.969C54.659 13.018 42.641 1 27.869 1S1.078 13.018 1.078 27.79c0 4.925 1.369 9.75 3.96 13.975.03.074.065.146.107.216L19.6 66.172C8.379 67.758 1 72.372 1 77.969c0 6.935 11.785 12.366 26.829 12.366s26.829-5.432 26.829-12.366c.001-5.623-7.722-10.34-19.07-11.857zM7.731 40.414A23.708 23.708 0 0 1 4.078 27.79C4.078 14.672 14.75 4 27.869 4c13.118 0 23.79 10.672 23.79 23.79 0 4.457-1.263 8.822-3.652 12.624-.05.08-.091.163-.124.249L32.043 66.13c-.238.365-.285.448-.576.926l-4 6.432L7.865 40.684a1.508 1.508 0 0 0-.134-.27zM27.83 87.335c-14.043 0-23.829-4.937-23.829-9.366 0-4.02 7.37-7.808 17.283-8.981l4.87 8.151c.269.449.751.726 1.274.73h.013c.518 0 1-.268 1.274-.708l5.12-8.232c10.071 1.091 17.823 4.975 17.823 9.04.001 4.43-9.785 9.366-23.828 9.366z"/><path class="st0" d="M37.571 27.79c0-5.371-4.37-9.741-9.741-9.741s-9.741 4.37-9.741 9.741 4.37 9.741 9.741 9.741c5.371 0 9.741-4.37 9.741-9.741zm-16.482 0c0-3.717 3.024-6.741 6.741-6.741s6.741 3.024 6.741 6.741-3.023 6.741-6.741 6.741-6.741-3.024-6.741-6.741z"/></svg>