<svg xmlns="http://www.w3.org/2000/svg" width="76.036" height="56.127"><path d="M75.966 55.085c.042-.145.07-.298.07-.459V1.499c0-.162-.028-.316-.07-.462-.007-.02-.01-.04-.017-.06a1.543 1.543 0 0 0-.244-.46c-.007-.009-.008-.02-.015-.029-.004-.005-.01-.007-.014-.012a1.35 1.35 0 0 0-.39-.323l-.031-.02a1.18 1.18 0 0 0-.451-.123c-.016-.001-.031-.005-.047-.005C74.742.004 74.73 0 74.714 0H1.324c-.015 0-.03.004-.044.005L1.238.01A1.195 1.195 0 0 0 .78.135C.77.139.765.146.756.15A1.33 1.33 0 0 0 .36.477C.356.482.35.483.347.488.34.496.339.507.332.516a1.55 1.55 0 0 0-.245.461c-.007.02-.01.04-.016.061-.043.146-.071.3-.071.462v53.128c0 .164.03.32.072.468.007.02.01.039.016.059.058.172.142.327.247.462.006.008.008.018.014.026l.019.018c.043.051.09.096.14.14.022.019.042.042.064.06.059.046.121.083.186.117.016.008.03.021.046.028.16.077.335.121.52.121h73.388c.184 0 .36-.043.52-.121.024-.012.047-.03.071-.044.055-.031.11-.063.16-.102.026-.021.05-.048.076-.071a1.28 1.28 0 0 0 .127-.129l.022-.022c.008-.009.01-.021.016-.03a1.55 1.55 0 0 0 .243-.458c.009-.022.013-.043.02-.065zM2.647 4.901l22.269 23.061L2.647 51.207V4.901zm45.642 21.931c-.092.068-.189.125-.266.221-.029.036-.038.083-.064.121l-9.94 10.294L4.733 2.999h66.569L48.289 26.832zm-21.412 3.161l10.249 10.613c.253.262.572.393.892.393.32 0 .64-.131.892-.393l10.122-10.481 22.265 23.002H4.714l22.163-23.134zm24.117-1.9L73.39 4.901v46.33L50.994 28.093z"/></svg>