<svg xmlns="http://www.w3.org/2000/svg" width="78.036" height="58.127"><path d="M76.966 56.085c.042-.145.07-.298.07-.459V2.499c0-.162-.028-.316-.07-.462-.007-.02-.01-.04-.017-.06a1.543 1.543 0 0 0-.244-.46c-.007-.009-.008-.02-.015-.029-.004-.005-.01-.007-.014-.012a1.35 1.35 0 0 0-.39-.323l-.031-.02a1.18 1.18 0 0 0-.451-.123c-.016-.001-.031-.005-.047-.005-.015-.001-.028-.005-.043-.005H2.324c-.015 0-.03.004-.044.005l-.042.005a1.195 1.195 0 0 0-.457.125c-.01.004-.016.011-.025.015a1.33 1.33 0 0 0-.395.327c-.005.005-.01.006-.014.011-.007.008-.008.019-.015.028a1.55 1.55 0 0 0-.245.461c-.007.02-.01.04-.016.061-.043.146-.071.3-.071.462v53.128c0 .164.03.32.072.468l.016.059c.058.172.142.327.247.462.006.008.008.018.014.026l.019.018c.043.051.09.096.14.14.022.019.042.042.064.06.059.046.121.083.186.117.016.008.03.021.046.028.16.077.335.121.52.121h73.388c.184 0 .36-.043.52-.121.024-.012.047-.03.071-.044.055-.031.11-.063.16-.102.026-.021.05-.048.076-.071a1.28 1.28 0 0 0 .127-.129l.022-.022c.008-.009.01-.021.016-.03a1.55 1.55 0 0 0 .243-.458c.009-.022.013-.043.02-.065zM3.647 5.901l22.269 23.061L3.647 52.207V5.901zm45.642 21.931c-.092.068-.189.125-.266.221-.029.036-.038.083-.064.121l-9.94 10.294L5.733 3.999h66.569L49.289 27.832zm-21.412 3.161l10.249 10.613c.253.262.572.393.892.393.32 0 .64-.131.892-.393l10.122-10.481 22.265 23.002H5.714l22.163-23.134zm24.117-1.9L74.39 5.901v46.33L51.994 29.093z" stroke="#000" stroke-width="2" stroke-miterlimit="10"/></svg>