<svg version="1.1" id="Layer_1" xmlns="http://www.w3.org/2000/svg" x="0" y="0" width="62.7" height="87.4" xml:space="preserve"><style>.st0{stroke:#000;stroke-width:2;stroke-miterlimit:10}</style><path class="st0" d="M52 1H10.7C5.4 1 1 5.3 1 10.6v66.2c0 5.3 4.3 9.6 9.7 9.6H52c5.3 0 9.7-4.3 9.7-9.6V10.6C61.7 5.3 57.4 1 52 1zm6.7 75.8c0 3.7-3 6.6-6.7 6.6H10.7c-3.7 0-6.7-3-6.7-6.6V10.6C4 6.9 7 4 10.7 4H52c3.7 0 6.7 3 6.7 6.6v66.2z"/><path class="st0" d="M43.6 10.5H18.9c-.8 0-1.5.7-1.5 1.5s.7 1.5 1.5 1.5h24.7c.8 0 1.5-.7 1.5-1.5s-.7-1.5-1.5-1.5zM31.3 67.8c-2.8 0-5 2.3-5 5 0 1.3.5 2.6 1.5 3.5.9.9 2.2 1.4 3.5 1.4 2.8 0 5-2.3 5-5s-2.2-4.9-5-4.9zm.1 7c-.5 0-1-.2-1.4-.6s-.6-.9-.6-1.4c0-1.1.9-2 2-2s2 .9 2 2-.9 2-2 2z"/></svg>