<svg version="1.1" id="Layer_1" xmlns="http://www.w3.org/2000/svg" x="0" y="0" width="22" height="22" xml:space="preserve"><style>.st0{fill:#070606}</style><path class="st0" d="M11 1.982c2.937 0 3.285.011 4.445.064 1.074.049 1.655.23 2.042.38.515.199.88.436 1.266.823.385.384.624.75.823 1.262.15.39.33.972.378 2.044.053 1.16.064 1.508.064 4.445s-.011 3.285-.064 4.445c-.049 1.072-.227 1.655-.378 2.042-.2.514-.438.882-.823 1.266-.386.385-.75.624-1.266.821-.387.15-.968.331-2.042.38-1.158.053-1.508.064-4.445.064s-3.285-.011-4.445-.064c-1.072-.049-1.655-.23-2.042-.38a3.38 3.38 0 0 1-1.266-.821 3.412 3.412 0 0 1-.821-1.266c-.15-.387-.331-.97-.38-2.042-.053-1.16-.064-1.508-.064-4.445s.011-3.285.064-4.445c.049-1.072.23-1.655.38-2.044.199-.512.438-.878.821-1.262a3.385 3.385 0 0 1 1.266-.823c.387-.15.97-.331 2.042-.38 1.16-.053 1.508-.064 4.445-.064M11 0C8.014 0 7.638.013 6.465.066c-1.17.052-1.97.239-2.67.513a5.397 5.397 0 0 0-1.948 1.266 5.41 5.41 0 0 0-1.268 1.95c-.272.7-.459 1.498-.511 2.67C.013 7.638 0 8.014 0 11s.013 3.362.068 4.535c.052 1.172.238 1.971.511 2.67.28.723.656 1.337 1.267 1.948a5.434 5.434 0 0 0 1.949 1.27c.7.27 1.5.459 2.67.511C7.638 21.987 8.014 22 11 22c2.988 0 3.362-.013 4.535-.066 1.172-.052 1.971-.24 2.67-.511.724-.282 1.337-.658 1.949-1.27s.989-1.225 1.269-1.948c.27-.699.459-1.498.511-2.67.053-1.173.066-1.549.066-4.535s-.013-3.362-.066-4.535c-.052-1.172-.24-1.97-.511-2.67a5.415 5.415 0 0 0-1.27-1.95A5.366 5.366 0 0 0 18.206.579c-.699-.274-1.498-.46-2.67-.513C14.362.013 13.988 0 11 0"/><path class="st0" d="M11 5.351a5.65 5.65 0 0 0 0 11.3 5.65 5.65 0 0 0 0-11.3m0 9.315a3.667 3.667 0 1 1 0-7.333 3.667 3.667 0 0 1 0 7.333m7.193-9.537a1.32 1.32 0 1 1-2.639.001 1.32 1.32 0 0 1 2.639-.001"/></svg>