<svg xmlns="http://www.w3.org/2000/svg" width="21" height="17.066"><path d="M21 2.02a8.61 8.61 0 0 1-2.475.679A4.323 4.323 0 0 0 20.42.314a8.62 8.62 0 0 1-2.734 1.045A4.307 4.307 0 0 0 14.54 0a4.309 4.309 0 0 0-4.198 5.29A12.231 12.231 0 0 1 1.461.786a4.295 4.295 0 0 0-.583 2.167c0 1.495.76 2.812 1.917 3.586A4.285 4.285 0 0 1 .844 6v.056A4.309 4.309 0 0 0 4.3 10.28a4.316 4.316 0 0 1-1.948.073 4.314 4.314 0 0 0 4.026 2.992 8.636 8.636 0 0 1-5.35 1.845c-.349 0-.691-.02-1.028-.06a12.191 12.191 0 0 0 6.605 1.936c7.925 0 12.259-6.565 12.259-12.26 0-.185-.006-.372-.013-.556A8.732 8.732 0 0 0 21 2.02" fill="#070606"/></svg>