<svg xmlns="http://www.w3.org/2000/svg" width="21.001" height="11.885"><path d="M18.073 7.558c.696.679 1.433 1.318 2.058 2.07.276.333.537.673.735 1.058.284.552.029 1.156-.465 1.188l-3.057-.002c-.79.067-1.419-.253-1.95-.791-.422-.432-.817-.891-1.224-1.336a2.872 2.872 0 0 0-.549-.49c-.417-.272-.779-.189-1.02.245-.24.445-.3.935-.322 1.43-.032.72-.249.908-.973.942-1.547.073-3.015-.162-4.377-.941-1.204-.686-2.135-1.658-2.945-2.757C2.403 6.032 1.192 3.68.107 1.264-.14.716.041.424.64.413a88.007 88.007 0 0 1 2.996.001c.404.008.676.239.83.621a18.698 18.698 0 0 0 2.03 3.763c.223.312.447.622.767.842.354.245.626.164.792-.23.107-.253.153-.52.176-.792.079-.92.089-1.844-.049-2.763-.085-.577-.409-.947-.984-1.056-.291-.055-.247-.162-.107-.33C7.338.18 7.571 0 8.032 0h3.456c.544.107.668.352.74.9l.005 3.84c-.008.213.105.843.486.982.305.102.508-.145.692-.338.826-.878 1.417-1.917 1.945-2.991.235-.474.437-.964.632-1.456.146-.364.37-.542.781-.536l3.328.004c.097 0 .198 0 .296.016.558.097.714.338.54.887-.273.858-.806 1.574-1.324 2.291-.556.77-1.148 1.512-1.7 2.283-.504.707-.464 1.063.164 1.676" fill-rule="evenodd" clip-rule="evenodd"/></svg>