<svg version="1.1" id="Layer_1" xmlns="http://www.w3.org/2000/svg" x="0" y="0" width="99.118" height="88.087" xml:space="preserve"><style>.st0{stroke:#000;stroke-width:.5;stroke-miterlimit:10}</style><path class="st0" d="M51.317 47.224a1.501 1.501 0 0 0-2.019.652L39.249 67.517a1.5 1.5 0 0 0 2.67 1.368l10.048-19.641a1.498 1.498 0 0 0-.65-2.02zm10.515-.75a1.5 1.5 0 1 0-2.121 2.121l9.583 9.58-9.583 9.58a1.5 1.5 0 1 0 2.122 2.121l10.645-10.641a1.5 1.5 0 0 0 0-2.122L61.832 46.474zm-30.297.001a1.5 1.5 0 0 0-2.121 0l-10.643 10.64a1.5 1.5 0 0 0 0 2.122l10.643 10.64c.293.293.677.439 1.061.439s.768-.146 1.061-.439a1.5 1.5 0 0 0 0-2.121l-9.581-9.58 9.581-9.58a1.5 1.5 0 0 0-.001-2.121z"/><path class="st0" d="M88.498 9.664H1.75a1.5 1.5 0 0 0-1.5 1.5v75.173a1.5 1.5 0 0 0 1.5 1.5h86.748a1.5 1.5 0 0 0 1.5-1.5V11.164a1.5 1.5 0 0 0-1.5-1.5zm-1.5 3v18.862H3.25V12.664h83.748zM3.25 84.837V34.526h83.748v50.311H3.25z"/><path class="st0" d="M11.186 23.101h6.89a1.5 1.5 0 1 0 0-3h-6.89a1.5 1.5 0 1 0 0 3zm14.764 0h6.89a1.5 1.5 0 1 0 0-3h-6.89a1.5 1.5 0 1 0 0 3zM95.624.25h3v80h-3z"/><path class="st0" d="M9.771 3.25l-1-3h89l1 3z"/></svg>