<svg xmlns="http://www.w3.org/2000/svg" xmlns:xlink="http://www.w3.org/1999/xlink" width="85.127" height="91.324"><defs><path id="a" d="M0 0h85.127v91.324H0z"/></defs><clipPath id="b"><use xlink:href="#a" overflow="visible"/></clipPath><path d="M84.46 27.628L43.397.252a1.501 1.501 0 0 0-1.665 0L.668 27.628a1.503 1.503 0 0 0 0 2.496l6.237 4.158v21.913c0 .511.26.987.69 1.263l34.4 22.052a1.49 1.49 0 0 0 1.654-.023l17.946-12.244v8.538l-6.684 13.372a1.506 1.506 0 0 0 .063 1.46c.275.441.758.711 1.278.711h13.687a1.5 1.5 0 0 0 1.342-2.17L64.594 75.78V65.196l11.377-7.762a1.5 1.5 0 0 0 .655-1.239V35.346l7.833-5.222a1.5 1.5 0 0 0 0-2.496M58.68 88.324l4.416-8.834 4.418 8.834h-8.835zM42.778 76.45L9.905 55.375V36.282l31.827 21.22a1.498 1.498 0 0 0 1.665 0l18.199-12.135v18.244l-18.818 12.84zm30.848-21.047l-9.03 6.162V43.367l9.03-6.02v18.056zm.98-22.315a1.477 1.477 0 0 0-.574.383l-10.937 7.291-19.699-13.134a1.5 1.5 0 0 0-1.665 2.496l18.66 12.44L42.563 54.45 4.204 28.876l38.36-25.573 38.36 25.573-6.319 4.212z" clip-path="url(#b)"/></svg>