<svg xmlns="http://www.w3.org/2000/svg" width="51" height="38"><path d="M40.688 1.811l6.686 6.778H9.988c-.587 0-1.063.482-1.063 1.077s.476 1.077 1.063 1.077h37.386l-6.686 6.778a1.087 1.087 0 0 0-.053 1.522 1.052 1.052 0 0 0 1.554 0l8.5-8.616a1.087 1.087 0 0 0 0-1.522L42.19.289a1.052 1.052 0 0 0-1.501.054 1.088 1.088 0 0 0 0 1.468zM8.81 18.957l-8.5 8.616a1.087 1.087 0 0 0 0 1.522l8.5 8.616c.43.405 1.102.381 1.502-.054.38-.413.38-1.055 0-1.468L3.626 29.41h37.386a1.07 1.07 0 0 0 1.063-1.077 1.07 1.07 0 0 0-1.063-1.077H3.626l6.686-6.778c.4-.435.377-1.117-.053-1.522a1.052 1.052 0 0 0-1.448 0z"/></svg>