<svg xmlns="http://www.w3.org/2000/svg" xmlns:xlink="http://www.w3.org/1999/xlink" width="86.178" height="86.784"><defs><path id="a" d="M0 0h86.178v86.784H0z"/></defs><clipPath id="b"><use xlink:href="#a" overflow="visible"/></clipPath><path d="M82.382 43.408c2.29-1.474 3.795-3.915 3.795-6.676 0-4.478-3.97-8.12-8.852-8.12H53.74c1.114-2.09 2.244-5.515 1.985-10.615C55.218 7.542 48.874 2.118 45.205.561c-2.164-.918-4.519-.7-6.298.583-1.786 1.288-3.802 4.246-3.263 11.026.558 7.046-8.41 14.69-12.78 17.973v-2.682a1.5 1.5 0 0 0-1.5-1.5H1.5a1.5 1.5 0 0 0-1.5 1.5v54.182a1.5 1.5 0 0 0 1.5 1.5h19.863a1.5 1.5 0 0 0 1.5-1.5v-2.737c5.654 2.033 21.553 7.511 29.41 7.768l15.777.11c4.875 0 8.84-3.805 8.84-8.48 0-2.154-.843-4.116-2.222-5.615 4.208-.655 7.433-4.148 7.433-8.36 0-2.242-.92-4.279-2.41-5.797 3.735-.997 6.487-4.278 6.487-8.172 0-2.876-1.505-5.418-3.796-6.952M3 80.142V28.96h16.863v4.02c-.002.04 0 .08 0 .12v43.634c0 .041-.003.082 0 .123v3.286H3zm74.325-24.294h-7.689l-.01.001H68.05a1.5 1.5 0 1 0 0 3h5.195c3.228 0 5.855 2.46 5.855 5.48 0 3.021-2.627 5.48-5.855 5.48H68.07l-.02-.002h-5.514a1.5 1.5 0 0 0 0 3h5.504l.01.001h.02c3.211.011 5.82 2.47 5.82 5.494 0 3.022-2.62 5.481-5.83 5.481l-15.728-.109c-7.822-.257-25.169-6.397-29.469-7.96V33.85c3.25-2.235 16.556-12.025 15.771-21.917-.334-4.205.386-7.172 2.027-8.355 1.365-.983 2.926-.442 3.373-.254 3.023 1.284 8.26 5.85 8.694 14.823.396 7.798-2.762 10.715-2.883 10.823a1.5 1.5 0 1 0 .971 2.643h26.508c3.227 0 5.852 2.297 5.852 5.12 0 2.837-2.625 5.146-5.852 5.146h-6.413a1.5 1.5 0 1 0 0 3h6.413c3.227 0 5.852 2.458 5.852 5.481.001 3.025-2.624 5.488-5.85 5.488" clip-path="url(#b)"/></svg>