<?xml version="1.0" standalone="no"?>
<!DOCTYPE svg PUBLIC "-//W3C//DTD SVG 20010904//EN"
 "http://www.w3.org/TR/2001/REC-SVG-20010904/DTD/svg10.dtd">
<svg version="1.0" xmlns="http://www.w3.org/2000/svg"
 width="500.000000pt" height="500.000000pt" viewBox="0 0 500.000000 500.000000"
 preserveAspectRatio="xMidYMid meet">
<metadata>
Created by potrace 1.11, written by Peter Selinger 2001-2013
</metadata>
<g transform="translate(0.000000,500.000000) scale(0.100000,-0.100000)"
fill="#000000" stroke="none">
<path d="M2479 4568 c-34 -46 -76 -99 -91 -118 -16 -19 -32 -39 -36 -45 -4 -5
-147 -189 -317 -408 -171 -220 -331 -427 -357 -460 -50 -67 -311 -402 -331
-427 -7 -8 -26 -33 -42 -55 -17 -22 -38 -49 -47 -60 -13 -16 -591 -759 -1072
-1380 -55 -71 -104 -134 -109 -140 -4 -5 -17 -21 -28 -35 -58 -69 -83 -19 268
-542 174 -260 328 -490 342 -510 l25 -38 1836 0 1836 0 224 337 c124 186 230
344 237 353 7 8 51 73 98 143 82 125 85 130 85 187 l0 58 -132 173 c-73 96
-155 204 -183 240 -55 72 -140 184 -419 550 -103 134 -192 251 -199 259 -7 8
-77 101 -157 205 -79 105 -182 240 -228 300 -47 61 -105 138 -131 172 -25 34
-49 62 -53 63 -6 0 -335 -433 -419 -552 -8 -10 -22 -29 -31 -41 -32 -40 -301
-402 -311 -418 -9 -14 28 -68 156 -229 7 -8 131 -170 277 -360 145 -190 267
-347 270 -350 3 -3 16 -20 29 -37 l22 -33 -23 -1 c-105 -2 -1909 0 -1910 2 -2
3 94 134 139 189 16 20 262 338 293 380 14 18 30 38 35 44 6 6 23 29 40 51 16
22 34 45 40 52 5 6 20 24 31 40 24 31 441 570 479 618 31 41 484 625 512 661
31 40 44 57 118 152 36 46 65 87 65 92 0 4 -26 41 -58 81 -31 41 -84 110 -117
154 -33 44 -64 85 -70 91 -5 6 -57 73 -115 148 -183 240 -291 381 -304 396 -6
9 -31 41 -55 73 -24 31 -45 57 -46 57 -1 0 -31 -37 -66 -82z"/>
</g>
</svg>
